<mxfile host="app.diagrams.net" modified="2024-04-21T02:16:11.001Z" agent="Mozilla/5.0 (Windows NT 10.0; Win64; x64) AppleWebKit/537.36 (KHTML, like Gecko) Chrome/124.0.0.0 Safari/537.36" etag="CclaWrqzskd-QQibeTBY" version="24.2.7" type="device">
  <diagram name="Page-1" id="7G6zf-rs8vA7cQBEN732">
    <mxGraphModel dx="2208" dy="1707" grid="1" gridSize="10" guides="1" tooltips="1" connect="1" arrows="1" fold="1" page="1" pageScale="1" pageWidth="850" pageHeight="1100" math="0" shadow="0">
      <root>
        <mxCell id="0" />
        <mxCell id="1" parent="0" />
        <mxCell id="UB3iZTF29jPLIW2LqCsD-1" value="PC" style="rounded=0;whiteSpace=wrap;html=1;" vertex="1" parent="1">
          <mxGeometry x="-340" y="200.5" width="60" height="110" as="geometry" />
        </mxCell>
        <mxCell id="UB3iZTF29jPLIW2LqCsD-18" style="edgeStyle=orthogonalEdgeStyle;rounded=0;orthogonalLoop=1;jettySize=auto;html=1;exitX=1;exitY=0.5;exitDx=0;exitDy=0;entryX=0.25;entryY=0;entryDx=0;entryDy=0;" edge="1" parent="1" source="UB3iZTF29jPLIW2LqCsD-2" target="UB3iZTF29jPLIW2LqCsD-15">
          <mxGeometry relative="1" as="geometry" />
        </mxCell>
        <mxCell id="UB3iZTF29jPLIW2LqCsD-2" value="inst memory" style="whiteSpace=wrap;html=1;aspect=fixed;" vertex="1" parent="1">
          <mxGeometry x="-226" y="183.75" width="160" height="160" as="geometry" />
        </mxCell>
        <mxCell id="UB3iZTF29jPLIW2LqCsD-3" value="" style="rounded=0;whiteSpace=wrap;html=1;" vertex="1" parent="1">
          <mxGeometry x="250" y="-40" width="30" height="570" as="geometry" />
        </mxCell>
        <mxCell id="UB3iZTF29jPLIW2LqCsD-4" value="RF" style="whiteSpace=wrap;html=1;aspect=fixed;" vertex="1" parent="1">
          <mxGeometry x="440" y="120" width="217.5" height="217.5" as="geometry" />
        </mxCell>
        <mxCell id="UB3iZTF29jPLIW2LqCsD-292" style="edgeStyle=orthogonalEdgeStyle;rounded=0;orthogonalLoop=1;jettySize=auto;html=1;" edge="1" parent="1" source="UB3iZTF29jPLIW2LqCsD-6">
          <mxGeometry relative="1" as="geometry">
            <mxPoint x="1450" y="306.875" as="targetPoint" />
          </mxGeometry>
        </mxCell>
        <mxCell id="UB3iZTF29jPLIW2LqCsD-6" value="ALU" style="shape=step;perimeter=stepPerimeter;whiteSpace=wrap;html=1;fixedSize=1;" vertex="1" parent="1">
          <mxGeometry x="1280" y="246.25" width="90" height="121.25" as="geometry" />
        </mxCell>
        <mxCell id="UB3iZTF29jPLIW2LqCsD-7" value="" style="rounded=0;whiteSpace=wrap;html=1;" vertex="1" parent="1">
          <mxGeometry x="1450" y="-40" width="30" height="596.25" as="geometry" />
        </mxCell>
        <mxCell id="UB3iZTF29jPLIW2LqCsD-10" value="" style="rounded=0;whiteSpace=wrap;html=1;" vertex="1" parent="1">
          <mxGeometry x="1990" y="-40" width="30" height="600" as="geometry" />
        </mxCell>
        <mxCell id="UB3iZTF29jPLIW2LqCsD-11" value="IF/ID" style="text;html=1;align=center;verticalAlign=middle;resizable=0;points=[];autosize=1;strokeColor=none;fillColor=none;" vertex="1" parent="1">
          <mxGeometry x="240" y="-80" width="50" height="30" as="geometry" />
        </mxCell>
        <mxCell id="UB3iZTF29jPLIW2LqCsD-12" value="ID/EX" style="text;html=1;align=center;verticalAlign=middle;resizable=0;points=[];autosize=1;strokeColor=none;fillColor=none;" vertex="1" parent="1">
          <mxGeometry x="710" y="-332.5" width="50" height="30" as="geometry" />
        </mxCell>
        <mxCell id="UB3iZTF29jPLIW2LqCsD-13" value="EX/MEM" style="text;html=1;align=center;verticalAlign=middle;resizable=0;points=[];autosize=1;strokeColor=none;fillColor=none;" vertex="1" parent="1">
          <mxGeometry x="1430" y="-332.5" width="70" height="30" as="geometry" />
        </mxCell>
        <mxCell id="UB3iZTF29jPLIW2LqCsD-14" value="MEM/WB" style="text;html=1;align=center;verticalAlign=middle;resizable=0;points=[];autosize=1;strokeColor=none;fillColor=none;" vertex="1" parent="1">
          <mxGeometry x="1970" y="-332.5" width="70" height="30" as="geometry" />
        </mxCell>
        <mxCell id="UB3iZTF29jPLIW2LqCsD-15" value="Mux_IF_ID_flush" style="verticalLabelPosition=middle;verticalAlign=middle;html=1;shape=trapezoid;perimeter=trapezoidPerimeter;whiteSpace=wrap;size=0.23;arcSize=10;flipV=1;labelPosition=center;align=center;rotation=-90;" vertex="1" parent="1">
          <mxGeometry x="50" y="150" width="140" height="35" as="geometry" />
        </mxCell>
        <mxCell id="UB3iZTF29jPLIW2LqCsD-17" style="edgeStyle=orthogonalEdgeStyle;rounded=0;orthogonalLoop=1;jettySize=auto;html=1;exitX=1;exitY=0.5;exitDx=0;exitDy=0;entryX=0.016;entryY=0.445;entryDx=0;entryDy=0;entryPerimeter=0;" edge="1" parent="1" source="UB3iZTF29jPLIW2LqCsD-1" target="UB3iZTF29jPLIW2LqCsD-2">
          <mxGeometry relative="1" as="geometry" />
        </mxCell>
        <mxCell id="UB3iZTF29jPLIW2LqCsD-19" value="" style="endArrow=classic;html=1;rounded=0;entryX=0.75;entryY=0;entryDx=0;entryDy=0;" edge="1" parent="1" target="UB3iZTF29jPLIW2LqCsD-15">
          <mxGeometry width="50" height="50" relative="1" as="geometry">
            <mxPoint x="20" y="133" as="sourcePoint" />
            <mxPoint x="-20" y="80" as="targetPoint" />
          </mxGeometry>
        </mxCell>
        <mxCell id="UB3iZTF29jPLIW2LqCsD-20" value="NOP" style="text;html=1;align=center;verticalAlign=middle;resizable=0;points=[];autosize=1;strokeColor=none;fillColor=none;" vertex="1" parent="1">
          <mxGeometry x="-30" y="120" width="50" height="30" as="geometry" />
        </mxCell>
        <mxCell id="UB3iZTF29jPLIW2LqCsD-22" style="edgeStyle=orthogonalEdgeStyle;rounded=0;orthogonalLoop=1;jettySize=auto;html=1;exitX=0.5;exitY=1;exitDx=0;exitDy=0;entryX=0.044;entryY=0.362;entryDx=0;entryDy=0;entryPerimeter=0;" edge="1" parent="1" source="UB3iZTF29jPLIW2LqCsD-15" target="UB3iZTF29jPLIW2LqCsD-3">
          <mxGeometry relative="1" as="geometry" />
        </mxCell>
        <mxCell id="UB3iZTF29jPLIW2LqCsD-25" value="IF_ID_input" style="edgeLabel;html=1;align=center;verticalAlign=middle;resizable=0;points=[];" vertex="1" connectable="0" parent="UB3iZTF29jPLIW2LqCsD-22">
          <mxGeometry x="-0.0013" y="3" relative="1" as="geometry">
            <mxPoint as="offset" />
          </mxGeometry>
        </mxCell>
        <mxCell id="UB3iZTF29jPLIW2LqCsD-23" value="" style="endArrow=classic;html=1;rounded=0;" edge="1" parent="1">
          <mxGeometry width="50" height="50" relative="1" as="geometry">
            <mxPoint x="-260" y="250" as="sourcePoint" />
            <mxPoint x="-20" y="260" as="targetPoint" />
            <Array as="points">
              <mxPoint x="-260" y="400" />
              <mxPoint x="-20" y="400" />
            </Array>
          </mxGeometry>
        </mxCell>
        <mxCell id="UB3iZTF29jPLIW2LqCsD-24" value="{Read_addr, inst_out}" style="edgeLabel;html=1;align=center;verticalAlign=middle;resizable=0;points=[];" vertex="1" connectable="0" parent="UB3iZTF29jPLIW2LqCsD-23">
          <mxGeometry x="0.0067" y="-2" relative="1" as="geometry">
            <mxPoint as="offset" />
          </mxGeometry>
        </mxCell>
        <mxCell id="UB3iZTF29jPLIW2LqCsD-26" value="load" style="text;html=1;align=center;verticalAlign=middle;resizable=0;points=[];autosize=1;strokeColor=none;fillColor=none;" vertex="1" parent="1">
          <mxGeometry x="240" y="480" width="50" height="30" as="geometry" />
        </mxCell>
        <mxCell id="UB3iZTF29jPLIW2LqCsD-28" value="~stall" style="text;html=1;align=center;verticalAlign=middle;resizable=0;points=[];autosize=1;strokeColor=none;fillColor=none;" vertex="1" parent="1">
          <mxGeometry x="220" y="595" width="50" height="30" as="geometry" />
        </mxCell>
        <mxCell id="UB3iZTF29jPLIW2LqCsD-30" value="pc" style="text;html=1;align=center;verticalAlign=middle;resizable=0;points=[];autosize=1;strokeColor=none;fillColor=none;" vertex="1" parent="1">
          <mxGeometry x="245" y="-30" width="40" height="30" as="geometry" />
        </mxCell>
        <mxCell id="UB3iZTF29jPLIW2LqCsD-31" value="inst&lt;div&gt;out&lt;/div&gt;" style="text;html=1;align=center;verticalAlign=middle;resizable=0;points=[];autosize=1;strokeColor=none;fillColor=none;" vertex="1" parent="1">
          <mxGeometry x="245" y="25" width="40" height="40" as="geometry" />
        </mxCell>
        <mxCell id="UB3iZTF29jPLIW2LqCsD-32" value="" style="endArrow=none;html=1;rounded=0;" edge="1" parent="1">
          <mxGeometry width="50" height="50" relative="1" as="geometry">
            <mxPoint x="250" y="10" as="sourcePoint" />
            <mxPoint x="280" y="10" as="targetPoint" />
          </mxGeometry>
        </mxCell>
        <mxCell id="UB3iZTF29jPLIW2LqCsD-34" value="" style="endArrow=classic;html=1;rounded=0;entryX=0.058;entryY=0.047;entryDx=0;entryDy=0;entryPerimeter=0;" edge="1" parent="1" target="UB3iZTF29jPLIW2LqCsD-5">
          <mxGeometry width="50" height="50" relative="1" as="geometry">
            <mxPoint x="280" y="-13" as="sourcePoint" />
            <mxPoint x="480" y="-10" as="targetPoint" />
          </mxGeometry>
        </mxCell>
        <mxCell id="UB3iZTF29jPLIW2LqCsD-35" value="IF_ID_PC" style="edgeLabel;html=1;align=center;verticalAlign=middle;resizable=0;points=[];" vertex="1" connectable="0" parent="UB3iZTF29jPLIW2LqCsD-34">
          <mxGeometry x="-0.2606" y="2" relative="1" as="geometry">
            <mxPoint x="38" as="offset" />
          </mxGeometry>
        </mxCell>
        <mxCell id="UB3iZTF29jPLIW2LqCsD-37" value="r1" style="text;html=1;align=center;verticalAlign=middle;resizable=0;points=[];autosize=1;strokeColor=none;fillColor=none;" vertex="1" parent="1">
          <mxGeometry x="620" y="140" width="30" height="30" as="geometry" />
        </mxCell>
        <mxCell id="UB3iZTF29jPLIW2LqCsD-38" value="" style="group" vertex="1" connectable="0" parent="1">
          <mxGeometry x="720" y="-40" width="30" height="570" as="geometry" />
        </mxCell>
        <mxCell id="UB3iZTF29jPLIW2LqCsD-5" value="" style="rounded=0;whiteSpace=wrap;html=1;" vertex="1" parent="UB3iZTF29jPLIW2LqCsD-38">
          <mxGeometry width="30" height="570" as="geometry" />
        </mxCell>
        <mxCell id="UB3iZTF29jPLIW2LqCsD-33" value="" style="endArrow=none;html=1;rounded=0;" edge="1" parent="UB3iZTF29jPLIW2LqCsD-38">
          <mxGeometry width="50" height="50" relative="1" as="geometry">
            <mxPoint y="50" as="sourcePoint" />
            <mxPoint x="30" y="50" as="targetPoint" />
          </mxGeometry>
        </mxCell>
        <mxCell id="UB3iZTF29jPLIW2LqCsD-39" value="r2" style="text;html=1;align=center;verticalAlign=middle;resizable=0;points=[];autosize=1;strokeColor=none;fillColor=none;" vertex="1" parent="1">
          <mxGeometry x="620" y="186.25" width="30" height="30" as="geometry" />
        </mxCell>
        <mxCell id="UB3iZTF29jPLIW2LqCsD-40" value="read1" style="text;html=1;align=center;verticalAlign=middle;resizable=0;points=[];autosize=1;strokeColor=none;fillColor=none;" vertex="1" parent="1">
          <mxGeometry x="445" y="140" width="50" height="30" as="geometry" />
        </mxCell>
        <mxCell id="UB3iZTF29jPLIW2LqCsD-41" value="read2" style="text;html=1;align=center;verticalAlign=middle;resizable=0;points=[];autosize=1;strokeColor=none;fillColor=none;" vertex="1" parent="1">
          <mxGeometry x="445" y="183.75" width="50" height="30" as="geometry" />
        </mxCell>
        <mxCell id="UB3iZTF29jPLIW2LqCsD-42" value="write" style="text;html=1;align=center;verticalAlign=middle;resizable=0;points=[];autosize=1;strokeColor=none;fillColor=none;" vertex="1" parent="1">
          <mxGeometry x="445" y="240.5" width="50" height="30" as="geometry" />
        </mxCell>
        <mxCell id="UB3iZTF29jPLIW2LqCsD-43" value="data" style="text;html=1;align=center;verticalAlign=middle;resizable=0;points=[];autosize=1;strokeColor=none;fillColor=none;" vertex="1" parent="1">
          <mxGeometry x="445" y="280.5" width="50" height="30" as="geometry" />
        </mxCell>
        <mxCell id="UB3iZTF29jPLIW2LqCsD-49" value="ctrl_unit CU" style="ellipse;whiteSpace=wrap;html=1;" vertex="1" parent="1">
          <mxGeometry x="400" y="-370" width="95" height="160" as="geometry" />
        </mxCell>
        <mxCell id="UB3iZTF29jPLIW2LqCsD-51" value="" style="endArrow=none;html=1;rounded=0;exitX=1;exitY=0.5;exitDx=0;exitDy=0;" edge="1" parent="1">
          <mxGeometry width="50" height="50" relative="1" as="geometry">
            <mxPoint x="279.9999999999998" y="239.68" as="sourcePoint" />
            <mxPoint x="310" y="240" as="targetPoint" />
          </mxGeometry>
        </mxCell>
        <mxCell id="UB3iZTF29jPLIW2LqCsD-52" value="" style="endArrow=classic;html=1;rounded=0;entryX=0;entryY=0.5;entryDx=0;entryDy=0;" edge="1" parent="1" target="UB3iZTF29jPLIW2LqCsD-49">
          <mxGeometry width="50" height="50" relative="1" as="geometry">
            <mxPoint x="310" y="240.5" as="sourcePoint" />
            <mxPoint x="364.99999999999045" y="-209.5" as="targetPoint" />
            <Array as="points">
              <mxPoint x="310" y="-290" />
            </Array>
          </mxGeometry>
        </mxCell>
        <mxCell id="UB3iZTF29jPLIW2LqCsD-53" value="" style="endArrow=classic;html=1;rounded=0;entryX=0.006;entryY=0.168;entryDx=0;entryDy=0;entryPerimeter=0;" edge="1" parent="1" target="UB3iZTF29jPLIW2LqCsD-4">
          <mxGeometry width="50" height="50" relative="1" as="geometry">
            <mxPoint x="310" y="157" as="sourcePoint" />
            <mxPoint x="420" y="160" as="targetPoint" />
            <Array as="points">
              <mxPoint x="360" y="157" />
              <mxPoint x="400" y="157" />
            </Array>
          </mxGeometry>
        </mxCell>
        <mxCell id="UB3iZTF29jPLIW2LqCsD-54" value="IF_ID_inst_out[19:15]" style="edgeLabel;html=1;align=center;verticalAlign=middle;resizable=0;points=[];" vertex="1" connectable="0" parent="UB3iZTF29jPLIW2LqCsD-53">
          <mxGeometry x="0.3535" y="1" relative="1" as="geometry">
            <mxPoint x="-29" y="-6" as="offset" />
          </mxGeometry>
        </mxCell>
        <mxCell id="UB3iZTF29jPLIW2LqCsD-55" value="" style="endArrow=classic;html=1;rounded=0;entryX=-0.01;entryY=0.367;entryDx=0;entryDy=0;entryPerimeter=0;" edge="1" parent="1" target="UB3iZTF29jPLIW2LqCsD-4">
          <mxGeometry width="50" height="50" relative="1" as="geometry">
            <mxPoint x="310" y="200" as="sourcePoint" />
            <mxPoint x="390" y="200" as="targetPoint" />
          </mxGeometry>
        </mxCell>
        <mxCell id="UB3iZTF29jPLIW2LqCsD-57" value="IF_ID_inst_out[24:20]" style="edgeLabel;html=1;align=center;verticalAlign=middle;resizable=0;points=[];" vertex="1" connectable="0" parent="UB3iZTF29jPLIW2LqCsD-55">
          <mxGeometry x="-0.2509" y="3" relative="1" as="geometry">
            <mxPoint x="12" y="-6" as="offset" />
          </mxGeometry>
        </mxCell>
        <mxCell id="UB3iZTF29jPLIW2LqCsD-58" value="" style="endArrow=classic;html=1;rounded=0;exitX=1.001;exitY=0.189;exitDx=0;exitDy=0;exitPerimeter=0;" edge="1" parent="1">
          <mxGeometry width="50" height="50" relative="1" as="geometry">
            <mxPoint x="657.4974999999997" y="152.06749999999982" as="sourcePoint" />
            <mxPoint x="720" y="152" as="targetPoint" />
          </mxGeometry>
        </mxCell>
        <mxCell id="UB3iZTF29jPLIW2LqCsD-59" value="read1" style="edgeLabel;html=1;align=center;verticalAlign=middle;resizable=0;points=[];" vertex="1" connectable="0" parent="UB3iZTF29jPLIW2LqCsD-58">
          <mxGeometry x="-0.1003" relative="1" as="geometry">
            <mxPoint as="offset" />
          </mxGeometry>
        </mxCell>
        <mxCell id="UB3iZTF29jPLIW2LqCsD-60" value="" style="endArrow=classic;html=1;rounded=0;exitX=1.001;exitY=0.189;exitDx=0;exitDy=0;exitPerimeter=0;" edge="1" parent="1">
          <mxGeometry width="50" height="50" relative="1" as="geometry">
            <mxPoint x="657.4974999999997" y="200.99749999999983" as="sourcePoint" />
            <mxPoint x="720" y="200.93" as="targetPoint" />
          </mxGeometry>
        </mxCell>
        <mxCell id="UB3iZTF29jPLIW2LqCsD-63" value="read2" style="edgeLabel;html=1;align=center;verticalAlign=middle;resizable=0;points=[];" vertex="1" connectable="0" parent="UB3iZTF29jPLIW2LqCsD-60">
          <mxGeometry x="-0.1416" y="1" relative="1" as="geometry">
            <mxPoint as="offset" />
          </mxGeometry>
        </mxCell>
        <mxCell id="UB3iZTF29jPLIW2LqCsD-64" value="" style="group" vertex="1" connectable="0" parent="1">
          <mxGeometry x="530" y="-302.5" width="137.5" height="200" as="geometry" />
        </mxCell>
        <mxCell id="UB3iZTF29jPLIW2LqCsD-44" value="MUX_Hazard_to_ID_EX" style="verticalLabelPosition=middle;verticalAlign=middle;html=1;shape=trapezoid;perimeter=trapezoidPerimeter;whiteSpace=wrap;size=0.23;arcSize=10;flipV=1;labelPosition=center;align=center;rotation=-90;" vertex="1" parent="UB3iZTF29jPLIW2LqCsD-64">
          <mxGeometry x="20" y="82.5" width="200" height="35" as="geometry" />
        </mxCell>
        <mxCell id="UB3iZTF29jPLIW2LqCsD-45" value="" style="endArrow=classic;html=1;rounded=0;" edge="1" parent="UB3iZTF29jPLIW2LqCsD-64">
          <mxGeometry width="50" height="50" relative="1" as="geometry">
            <mxPoint x="40" y="152.5" as="sourcePoint" />
            <mxPoint x="100" y="152.5" as="targetPoint" />
          </mxGeometry>
        </mxCell>
        <mxCell id="UB3iZTF29jPLIW2LqCsD-46" value="zero" style="text;html=1;align=center;verticalAlign=middle;resizable=0;points=[];autosize=1;strokeColor=none;fillColor=none;" vertex="1" parent="UB3iZTF29jPLIW2LqCsD-64">
          <mxGeometry y="136.5" width="50" height="30" as="geometry" />
        </mxCell>
        <mxCell id="UB3iZTF29jPLIW2LqCsD-65" value="" style="endArrow=classic;html=1;rounded=0;exitX=1;exitY=0;exitDx=0;exitDy=0;" edge="1" parent="1" source="UB3iZTF29jPLIW2LqCsD-49">
          <mxGeometry width="50" height="50" relative="1" as="geometry">
            <mxPoint x="510" y="-330" as="sourcePoint" />
            <mxPoint x="600" y="-347" as="targetPoint" />
          </mxGeometry>
        </mxCell>
        <mxCell id="UB3iZTF29jPLIW2LqCsD-70" value="branch" style="edgeLabel;html=1;align=center;verticalAlign=middle;resizable=0;points=[];" vertex="1" connectable="0" parent="UB3iZTF29jPLIW2LqCsD-65">
          <mxGeometry x="-0.2395" y="-1" relative="1" as="geometry">
            <mxPoint as="offset" />
          </mxGeometry>
        </mxCell>
        <mxCell id="UB3iZTF29jPLIW2LqCsD-66" value="" style="endArrow=classic;html=1;rounded=0;exitX=0.944;exitY=0.247;exitDx=0;exitDy=0;exitPerimeter=0;" edge="1" parent="1" source="UB3iZTF29jPLIW2LqCsD-49">
          <mxGeometry width="50" height="50" relative="1" as="geometry">
            <mxPoint x="494.25" y="-330" as="sourcePoint" />
            <mxPoint x="603.25" y="-330" as="targetPoint" />
          </mxGeometry>
        </mxCell>
        <mxCell id="UB3iZTF29jPLIW2LqCsD-71" value="MemRead" style="edgeLabel;html=1;align=center;verticalAlign=middle;resizable=0;points=[];" vertex="1" connectable="0" parent="UB3iZTF29jPLIW2LqCsD-66">
          <mxGeometry x="-0.4548" relative="1" as="geometry">
            <mxPoint as="offset" />
          </mxGeometry>
        </mxCell>
        <mxCell id="UB3iZTF29jPLIW2LqCsD-67" value="" style="endArrow=classic;html=1;rounded=0;exitX=1;exitY=0;exitDx=0;exitDy=0;" edge="1" parent="1">
          <mxGeometry width="50" height="50" relative="1" as="geometry">
            <mxPoint x="495" y="-310" as="sourcePoint" />
            <mxPoint x="604" y="-310" as="targetPoint" />
          </mxGeometry>
        </mxCell>
        <mxCell id="UB3iZTF29jPLIW2LqCsD-72" value="MemtoReg" style="edgeLabel;html=1;align=center;verticalAlign=middle;resizable=0;points=[];" vertex="1" connectable="0" parent="UB3iZTF29jPLIW2LqCsD-67">
          <mxGeometry x="-0.3962" y="-1" relative="1" as="geometry">
            <mxPoint as="offset" />
          </mxGeometry>
        </mxCell>
        <mxCell id="UB3iZTF29jPLIW2LqCsD-68" value="" style="endArrow=classic;html=1;rounded=0;exitX=1;exitY=0;exitDx=0;exitDy=0;" edge="1" parent="1">
          <mxGeometry width="50" height="50" relative="1" as="geometry">
            <mxPoint x="494.25" y="-290.45" as="sourcePoint" />
            <mxPoint x="600" y="-290" as="targetPoint" />
          </mxGeometry>
        </mxCell>
        <mxCell id="UB3iZTF29jPLIW2LqCsD-73" value="MemWrite" style="edgeLabel;html=1;align=center;verticalAlign=middle;resizable=0;points=[];" vertex="1" connectable="0" parent="UB3iZTF29jPLIW2LqCsD-68">
          <mxGeometry x="-0.5158" y="2" relative="1" as="geometry">
            <mxPoint x="19" y="2" as="offset" />
          </mxGeometry>
        </mxCell>
        <mxCell id="UB3iZTF29jPLIW2LqCsD-69" value="" style="endArrow=classic;html=1;rounded=0;exitX=1;exitY=0;exitDx=0;exitDy=0;" edge="1" parent="1">
          <mxGeometry width="50" height="50" relative="1" as="geometry">
            <mxPoint x="495" y="-270" as="sourcePoint" />
            <mxPoint x="600" y="-270" as="targetPoint" />
          </mxGeometry>
        </mxCell>
        <mxCell id="UB3iZTF29jPLIW2LqCsD-74" value="ALUSrc" style="edgeLabel;html=1;align=center;verticalAlign=middle;resizable=0;points=[];" vertex="1" connectable="0" parent="UB3iZTF29jPLIW2LqCsD-69">
          <mxGeometry x="-0.3628" y="2" relative="1" as="geometry">
            <mxPoint x="10" as="offset" />
          </mxGeometry>
        </mxCell>
        <mxCell id="UB3iZTF29jPLIW2LqCsD-75" value="" style="endArrow=classic;html=1;rounded=0;exitX=1;exitY=0;exitDx=0;exitDy=0;" edge="1" parent="1">
          <mxGeometry width="50" height="50" relative="1" as="geometry">
            <mxPoint x="490" y="-250" as="sourcePoint" />
            <mxPoint x="599" y="-250" as="targetPoint" />
          </mxGeometry>
        </mxCell>
        <mxCell id="UB3iZTF29jPLIW2LqCsD-76" value="RegWrite" style="edgeLabel;html=1;align=center;verticalAlign=middle;resizable=0;points=[];" vertex="1" connectable="0" parent="UB3iZTF29jPLIW2LqCsD-75">
          <mxGeometry x="-0.3628" y="2" relative="1" as="geometry">
            <mxPoint x="10" as="offset" />
          </mxGeometry>
        </mxCell>
        <mxCell id="UB3iZTF29jPLIW2LqCsD-77" value="" style="endArrow=classic;html=1;rounded=0;exitX=1;exitY=0;exitDx=0;exitDy=0;" edge="1" parent="1">
          <mxGeometry width="50" height="50" relative="1" as="geometry">
            <mxPoint x="480" y="-230" as="sourcePoint" />
            <mxPoint x="600" y="-230" as="targetPoint" />
          </mxGeometry>
        </mxCell>
        <mxCell id="UB3iZTF29jPLIW2LqCsD-78" value="ALUOp" style="edgeLabel;html=1;align=center;verticalAlign=middle;resizable=0;points=[];" vertex="1" connectable="0" parent="UB3iZTF29jPLIW2LqCsD-77">
          <mxGeometry x="-0.3628" y="2" relative="1" as="geometry">
            <mxPoint x="10" as="offset" />
          </mxGeometry>
        </mxCell>
        <mxCell id="UB3iZTF29jPLIW2LqCsD-81" value="" style="endArrow=classic;html=1;rounded=0;entryX=0.634;entryY=0.955;entryDx=0;entryDy=0;entryPerimeter=0;" edge="1" parent="1" target="UB3iZTF29jPLIW2LqCsD-44">
          <mxGeometry width="50" height="50" relative="1" as="geometry">
            <mxPoint x="600" y="-229" as="sourcePoint" />
            <mxPoint x="670" y="-260" as="targetPoint" />
          </mxGeometry>
        </mxCell>
        <mxCell id="UB3iZTF29jPLIW2LqCsD-79" value="" style="endArrow=none;html=1;rounded=0;" edge="1" parent="1">
          <mxGeometry width="50" height="50" relative="1" as="geometry">
            <mxPoint x="600" y="-230" as="sourcePoint" />
            <mxPoint x="600" y="-360" as="targetPoint" />
          </mxGeometry>
        </mxCell>
        <mxCell id="UB3iZTF29jPLIW2LqCsD-82" value="" style="rounded=0;whiteSpace=wrap;html=1;" vertex="1" parent="1">
          <mxGeometry x="720" y="-300" width="30" height="260" as="geometry" />
        </mxCell>
        <mxCell id="UB3iZTF29jPLIW2LqCsD-83" value="" style="endArrow=classic;html=1;rounded=0;entryX=0.009;entryY=0.378;entryDx=0;entryDy=0;entryPerimeter=0;" edge="1" parent="1" source="UB3iZTF29jPLIW2LqCsD-44" target="UB3iZTF29jPLIW2LqCsD-82">
          <mxGeometry width="50" height="50" relative="1" as="geometry">
            <mxPoint x="680" y="-140" as="sourcePoint" />
            <mxPoint x="730" y="-190" as="targetPoint" />
          </mxGeometry>
        </mxCell>
        <mxCell id="UB3iZTF29jPLIW2LqCsD-84" value="ID_EX_&lt;div&gt;input&lt;/div&gt;" style="edgeLabel;html=1;align=center;verticalAlign=middle;resizable=0;points=[];" vertex="1" connectable="0" parent="UB3iZTF29jPLIW2LqCsD-83">
          <mxGeometry x="-0.2529" y="-3" relative="1" as="geometry">
            <mxPoint x="3" y="-21" as="offset" />
          </mxGeometry>
        </mxCell>
        <mxCell id="UB3iZTF29jPLIW2LqCsD-85" value="load" style="text;html=1;align=center;verticalAlign=middle;resizable=0;points=[];autosize=1;strokeColor=none;fillColor=none;" vertex="1" parent="1">
          <mxGeometry x="710" y="500" width="50" height="30" as="geometry" />
        </mxCell>
        <mxCell id="UB3iZTF29jPLIW2LqCsD-86" value="" style="endArrow=classic;html=1;rounded=0;entryX=0.504;entryY=1.033;entryDx=0;entryDy=0;entryPerimeter=0;" edge="1" parent="1" target="UB3iZTF29jPLIW2LqCsD-85">
          <mxGeometry width="50" height="50" relative="1" as="geometry">
            <mxPoint x="735" y="600" as="sourcePoint" />
            <mxPoint x="770" y="550" as="targetPoint" />
          </mxGeometry>
        </mxCell>
        <mxCell id="UB3iZTF29jPLIW2LqCsD-87" value="1" style="text;html=1;align=center;verticalAlign=middle;resizable=0;points=[];autosize=1;strokeColor=none;fillColor=none;" vertex="1" parent="1">
          <mxGeometry x="710" y="550" width="30" height="30" as="geometry" />
        </mxCell>
        <mxCell id="UB3iZTF29jPLIW2LqCsD-88" value="immGen" style="ellipse;whiteSpace=wrap;html=1;" vertex="1" parent="1">
          <mxGeometry x="497.99" y="460" width="70" height="80" as="geometry" />
        </mxCell>
        <mxCell id="UB3iZTF29jPLIW2LqCsD-89" style="edgeStyle=orthogonalEdgeStyle;rounded=0;orthogonalLoop=1;jettySize=auto;html=1;exitX=1;exitY=0.5;exitDx=0;exitDy=0;entryX=0.067;entryY=0.9;entryDx=0;entryDy=0;entryPerimeter=0;" edge="1" parent="1" source="UB3iZTF29jPLIW2LqCsD-88">
          <mxGeometry relative="1" as="geometry">
            <mxPoint x="719.9999999999998" y="503.0000000000002" as="targetPoint" />
            <Array as="points">
              <mxPoint x="567.99" y="503" />
            </Array>
          </mxGeometry>
        </mxCell>
        <mxCell id="UB3iZTF29jPLIW2LqCsD-90" value="gen_out" style="edgeLabel;html=1;align=center;verticalAlign=middle;resizable=0;points=[];" vertex="1" connectable="0" parent="UB3iZTF29jPLIW2LqCsD-89">
          <mxGeometry x="-0.2919" y="1" relative="1" as="geometry">
            <mxPoint as="offset" />
          </mxGeometry>
        </mxCell>
        <mxCell id="UB3iZTF29jPLIW2LqCsD-91" value="" style="endArrow=classic;html=1;rounded=0;entryX=0;entryY=0.5;entryDx=0;entryDy=0;" edge="1" parent="1">
          <mxGeometry width="50" height="50" relative="1" as="geometry">
            <mxPoint x="310" y="240" as="sourcePoint" />
            <mxPoint x="497.99000000001047" y="503" as="targetPoint" />
            <Array as="points">
              <mxPoint x="307.99" y="503.5" />
            </Array>
          </mxGeometry>
        </mxCell>
        <mxCell id="UB3iZTF29jPLIW2LqCsD-92" value="" style="endArrow=classic;html=1;rounded=0;" edge="1" parent="1">
          <mxGeometry width="50" height="50" relative="1" as="geometry">
            <mxPoint x="310" y="450" as="sourcePoint" />
            <mxPoint x="720" y="450" as="targetPoint" />
          </mxGeometry>
        </mxCell>
        <mxCell id="UB3iZTF29jPLIW2LqCsD-93" value="{IF_ID_inst_out[30], IF_ID_inst_out[14:12]}" style="edgeLabel;html=1;align=center;verticalAlign=middle;resizable=0;points=[];" vertex="1" connectable="0" parent="UB3iZTF29jPLIW2LqCsD-92">
          <mxGeometry x="-0.1986" relative="1" as="geometry">
            <mxPoint x="46" as="offset" />
          </mxGeometry>
        </mxCell>
        <mxCell id="UB3iZTF29jPLIW2LqCsD-94" value="" style="endArrow=classic;html=1;rounded=0;entryX=0.033;entryY=0.739;entryDx=0;entryDy=0;entryPerimeter=0;" edge="1" parent="1">
          <mxGeometry width="50" height="50" relative="1" as="geometry">
            <mxPoint x="309.01" y="420" as="sourcePoint" />
            <mxPoint x="719.9999999999998" y="421.23" as="targetPoint" />
          </mxGeometry>
        </mxCell>
        <mxCell id="UB3iZTF29jPLIW2LqCsD-95" value="IF_ID_inst_out[19:15]" style="edgeLabel;html=1;align=center;verticalAlign=middle;resizable=0;points=[];" vertex="1" connectable="0" parent="UB3iZTF29jPLIW2LqCsD-94">
          <mxGeometry x="-0.0407" y="1" relative="1" as="geometry">
            <mxPoint as="offset" />
          </mxGeometry>
        </mxCell>
        <mxCell id="UB3iZTF29jPLIW2LqCsD-96" value="" style="endArrow=classic;html=1;rounded=0;" edge="1" parent="1">
          <mxGeometry width="50" height="50" relative="1" as="geometry">
            <mxPoint x="310" y="390" as="sourcePoint" />
            <mxPoint x="720" y="390" as="targetPoint" />
          </mxGeometry>
        </mxCell>
        <mxCell id="UB3iZTF29jPLIW2LqCsD-97" value="IF_ID_inst_out[24:20]" style="edgeLabel;html=1;align=center;verticalAlign=middle;resizable=0;points=[];" vertex="1" connectable="0" parent="UB3iZTF29jPLIW2LqCsD-96">
          <mxGeometry x="0.0348" y="2" relative="1" as="geometry">
            <mxPoint x="-12" as="offset" />
          </mxGeometry>
        </mxCell>
        <mxCell id="UB3iZTF29jPLIW2LqCsD-100" value="" style="endArrow=classic;html=1;rounded=0;" edge="1" parent="1">
          <mxGeometry width="50" height="50" relative="1" as="geometry">
            <mxPoint x="310" y="360" as="sourcePoint" />
            <mxPoint x="720" y="360" as="targetPoint" />
          </mxGeometry>
        </mxCell>
        <mxCell id="UB3iZTF29jPLIW2LqCsD-101" value="IF_ID_inst_out[11:7]" style="edgeLabel;html=1;align=center;verticalAlign=middle;resizable=0;points=[];" vertex="1" connectable="0" parent="UB3iZTF29jPLIW2LqCsD-100">
          <mxGeometry x="0.0348" y="2" relative="1" as="geometry">
            <mxPoint x="-12" as="offset" />
          </mxGeometry>
        </mxCell>
        <mxCell id="UB3iZTF29jPLIW2LqCsD-140" style="edgeStyle=orthogonalEdgeStyle;rounded=0;orthogonalLoop=1;jettySize=auto;html=1;exitX=0.5;exitY=0;exitDx=0;exitDy=0;exitPerimeter=0;entryX=0;entryY=0.5;entryDx=0;entryDy=0;" edge="1" parent="1" source="UB3iZTF29jPLIW2LqCsD-102" target="UB3iZTF29jPLIW2LqCsD-137">
          <mxGeometry relative="1" as="geometry">
            <Array as="points">
              <mxPoint x="1070" y="300" />
              <mxPoint x="1070" y="300" />
            </Array>
          </mxGeometry>
        </mxCell>
        <mxCell id="UB3iZTF29jPLIW2LqCsD-144" value="forwardA_ALU" style="edgeLabel;html=1;align=center;verticalAlign=middle;resizable=0;points=[];" vertex="1" connectable="0" parent="UB3iZTF29jPLIW2LqCsD-140">
          <mxGeometry x="-0.0903" y="2" relative="1" as="geometry">
            <mxPoint as="offset" />
          </mxGeometry>
        </mxCell>
        <mxCell id="UB3iZTF29jPLIW2LqCsD-142" style="edgeStyle=orthogonalEdgeStyle;rounded=0;orthogonalLoop=1;jettySize=auto;html=1;exitX=0.89;exitY=0.11;exitDx=0;exitDy=0;exitPerimeter=0;" edge="1" parent="1" source="UB3iZTF29jPLIW2LqCsD-102" target="UB3iZTF29jPLIW2LqCsD-136">
          <mxGeometry relative="1" as="geometry" />
        </mxCell>
        <mxCell id="UB3iZTF29jPLIW2LqCsD-143" value="forwardB_ALU" style="edgeLabel;html=1;align=center;verticalAlign=middle;resizable=0;points=[];" vertex="1" connectable="0" parent="UB3iZTF29jPLIW2LqCsD-142">
          <mxGeometry x="-0.6525" y="-1" relative="1" as="geometry">
            <mxPoint x="29" y="-31" as="offset" />
          </mxGeometry>
        </mxCell>
        <mxCell id="UB3iZTF29jPLIW2LqCsD-102" value="forward_unit" style="strokeWidth=2;html=1;shape=mxgraph.flowchart.terminator;whiteSpace=wrap;" vertex="1" parent="1">
          <mxGeometry x="1020" y="580" width="100" height="60" as="geometry" />
        </mxCell>
        <mxCell id="UB3iZTF29jPLIW2LqCsD-103" value="" style="endArrow=classic;html=1;rounded=0;entryX=-0.092;entryY=0.136;entryDx=0;entryDy=0;entryPerimeter=0;" edge="1" parent="1" target="UB3iZTF29jPLIW2LqCsD-7">
          <mxGeometry width="50" height="50" relative="1" as="geometry">
            <mxPoint x="750" y="360" as="sourcePoint" />
            <mxPoint x="910" y="360" as="targetPoint" />
            <Array as="points">
              <mxPoint x="850" y="360" />
              <mxPoint x="850" y="40" />
              <mxPoint x="1370" y="40" />
              <mxPoint x="1410" y="40" />
            </Array>
          </mxGeometry>
        </mxCell>
        <mxCell id="UB3iZTF29jPLIW2LqCsD-104" value="ID_EX_Rd" style="edgeLabel;html=1;align=center;verticalAlign=middle;resizable=0;points=[];" vertex="1" connectable="0" parent="UB3iZTF29jPLIW2LqCsD-103">
          <mxGeometry x="0.2732" y="2" relative="1" as="geometry">
            <mxPoint x="-298" y="312" as="offset" />
          </mxGeometry>
        </mxCell>
        <mxCell id="UB3iZTF29jPLIW2LqCsD-105" value="" style="endArrow=classic;html=1;rounded=0;entryX=0.11;entryY=0.11;entryDx=0;entryDy=0;entryPerimeter=0;" edge="1" parent="1" target="UB3iZTF29jPLIW2LqCsD-102">
          <mxGeometry width="50" height="50" relative="1" as="geometry">
            <mxPoint x="750" y="390" as="sourcePoint" />
            <mxPoint x="910" y="390" as="targetPoint" />
            <Array as="points">
              <mxPoint x="980" y="390" />
              <mxPoint x="980" y="587" />
            </Array>
          </mxGeometry>
        </mxCell>
        <mxCell id="UB3iZTF29jPLIW2LqCsD-106" value="ID_EX_Rs2" style="edgeLabel;html=1;align=center;verticalAlign=middle;resizable=0;points=[];" vertex="1" connectable="0" parent="UB3iZTF29jPLIW2LqCsD-105">
          <mxGeometry x="0.2732" y="2" relative="1" as="geometry">
            <mxPoint x="-132" y="-74" as="offset" />
          </mxGeometry>
        </mxCell>
        <mxCell id="UB3iZTF29jPLIW2LqCsD-107" value="" style="endArrow=classic;html=1;rounded=0;entryX=0;entryY=0.5;entryDx=0;entryDy=0;entryPerimeter=0;" edge="1" parent="1" target="UB3iZTF29jPLIW2LqCsD-102">
          <mxGeometry width="50" height="50" relative="1" as="geometry">
            <mxPoint x="750" y="420" as="sourcePoint" />
            <mxPoint x="910" y="420" as="targetPoint" />
            <Array as="points">
              <mxPoint x="970" y="420" />
              <mxPoint x="970" y="610" />
            </Array>
          </mxGeometry>
        </mxCell>
        <mxCell id="UB3iZTF29jPLIW2LqCsD-108" value="ID_EX_Rs1" style="edgeLabel;html=1;align=center;verticalAlign=middle;resizable=0;points=[];" vertex="1" connectable="0" parent="UB3iZTF29jPLIW2LqCsD-107">
          <mxGeometry x="0.2732" y="2" relative="1" as="geometry">
            <mxPoint x="-122" y="-73" as="offset" />
          </mxGeometry>
        </mxCell>
        <mxCell id="UB3iZTF29jPLIW2LqCsD-109" value="" style="endArrow=classic;html=1;rounded=0;" edge="1" parent="1" target="UB3iZTF29jPLIW2LqCsD-197">
          <mxGeometry width="50" height="50" relative="1" as="geometry">
            <mxPoint x="750" y="450" as="sourcePoint" />
            <mxPoint x="910" y="450" as="targetPoint" />
            <Array as="points">
              <mxPoint x="850" y="450" />
              <mxPoint x="850" y="650" />
              <mxPoint x="1290" y="650" />
              <mxPoint x="1290" y="620" />
            </Array>
          </mxGeometry>
        </mxCell>
        <mxCell id="UB3iZTF29jPLIW2LqCsD-110" value="ID_EX_Func" style="edgeLabel;html=1;align=center;verticalAlign=middle;resizable=0;points=[];" vertex="1" connectable="0" parent="UB3iZTF29jPLIW2LqCsD-109">
          <mxGeometry x="0.2732" y="2" relative="1" as="geometry">
            <mxPoint x="-218" y="-208" as="offset" />
          </mxGeometry>
        </mxCell>
        <mxCell id="UB3iZTF29jPLIW2LqCsD-202" value="ID_EX_Func[3]" style="edgeLabel;html=1;align=center;verticalAlign=middle;resizable=0;points=[];" vertex="1" connectable="0" parent="UB3iZTF29jPLIW2LqCsD-109">
          <mxGeometry x="0.9272" y="2" relative="1" as="geometry">
            <mxPoint x="-10" y="-8" as="offset" />
          </mxGeometry>
        </mxCell>
        <mxCell id="UB3iZTF29jPLIW2LqCsD-111" value="" style="endArrow=classic;html=1;rounded=0;entryX=0;entryY=0.5;entryDx=0;entryDy=0;" edge="1" parent="1" target="UB3iZTF29jPLIW2LqCsD-154">
          <mxGeometry width="50" height="50" relative="1" as="geometry">
            <mxPoint x="750" y="500" as="sourcePoint" />
            <mxPoint x="910" y="500" as="targetPoint" />
            <Array as="points">
              <mxPoint x="960" y="500" />
              <mxPoint x="960" y="105" />
            </Array>
          </mxGeometry>
        </mxCell>
        <mxCell id="UB3iZTF29jPLIW2LqCsD-112" value="ID_EX_Imm" style="edgeLabel;html=1;align=center;verticalAlign=middle;resizable=0;points=[];" vertex="1" connectable="0" parent="UB3iZTF29jPLIW2LqCsD-111">
          <mxGeometry x="0.2732" y="2" relative="1" as="geometry">
            <mxPoint x="-108" y="210" as="offset" />
          </mxGeometry>
        </mxCell>
        <mxCell id="UB3iZTF29jPLIW2LqCsD-113" value="" style="endArrow=classic;html=1;rounded=0;entryX=-0.049;entryY=0.407;entryDx=0;entryDy=0;entryPerimeter=0;" edge="1" parent="1" target="UB3iZTF29jPLIW2LqCsD-7">
          <mxGeometry width="50" height="50" relative="1" as="geometry">
            <mxPoint x="750" y="200.77" as="sourcePoint" />
            <mxPoint x="910" y="200.77" as="targetPoint" />
          </mxGeometry>
        </mxCell>
        <mxCell id="UB3iZTF29jPLIW2LqCsD-114" value="ID_EX_RegR2" style="edgeLabel;html=1;align=center;verticalAlign=middle;resizable=0;points=[];" vertex="1" connectable="0" parent="UB3iZTF29jPLIW2LqCsD-113">
          <mxGeometry x="0.2732" y="2" relative="1" as="geometry">
            <mxPoint x="-324" y="-1" as="offset" />
          </mxGeometry>
        </mxCell>
        <mxCell id="UB3iZTF29jPLIW2LqCsD-115" value="" style="endArrow=classic;html=1;rounded=0;entryX=0.828;entryY=0.833;entryDx=0;entryDy=0;entryPerimeter=0;" edge="1" parent="1" target="UB3iZTF29jPLIW2LqCsD-137">
          <mxGeometry width="50" height="50" relative="1" as="geometry">
            <mxPoint x="750" y="156.27" as="sourcePoint" />
            <mxPoint x="1055" y="240.5" as="targetPoint" />
            <Array as="points">
              <mxPoint x="1000" y="156.75" />
              <mxPoint x="1000" y="231.75" />
            </Array>
          </mxGeometry>
        </mxCell>
        <mxCell id="UB3iZTF29jPLIW2LqCsD-116" value="ID_EX_RegR1" style="edgeLabel;html=1;align=center;verticalAlign=middle;resizable=0;points=[];" vertex="1" connectable="0" parent="UB3iZTF29jPLIW2LqCsD-115">
          <mxGeometry x="0.2732" y="2" relative="1" as="geometry">
            <mxPoint x="-129" y="-3" as="offset" />
          </mxGeometry>
        </mxCell>
        <mxCell id="UB3iZTF29jPLIW2LqCsD-117" value="" style="endArrow=classic;html=1;rounded=0;entryX=0;entryY=0.044;entryDx=0;entryDy=0;entryPerimeter=0;" edge="1" parent="1" target="UB3iZTF29jPLIW2LqCsD-7">
          <mxGeometry width="50" height="50" relative="1" as="geometry">
            <mxPoint x="750" y="-13.75" as="sourcePoint" />
            <mxPoint x="1192" y="-13.75" as="targetPoint" />
          </mxGeometry>
        </mxCell>
        <mxCell id="UB3iZTF29jPLIW2LqCsD-118" value="ID_EX_PC" style="edgeLabel;html=1;align=center;verticalAlign=middle;resizable=0;points=[];" vertex="1" connectable="0" parent="UB3iZTF29jPLIW2LqCsD-117">
          <mxGeometry x="-0.2606" y="2" relative="1" as="geometry">
            <mxPoint x="38" as="offset" />
          </mxGeometry>
        </mxCell>
        <mxCell id="UB3iZTF29jPLIW2LqCsD-119" value="" style="endArrow=classic;html=1;rounded=0;exitX=1;exitY=0;exitDx=0;exitDy=0;" edge="1" parent="1">
          <mxGeometry width="50" height="50" relative="1" as="geometry">
            <mxPoint x="750" y="-250" as="sourcePoint" />
            <mxPoint x="869" y="-250" as="targetPoint" />
          </mxGeometry>
        </mxCell>
        <mxCell id="UB3iZTF29jPLIW2LqCsD-120" value="ID_EX_Branch" style="edgeLabel;html=1;align=center;verticalAlign=middle;resizable=0;points=[];" vertex="1" connectable="0" parent="UB3iZTF29jPLIW2LqCsD-119">
          <mxGeometry x="-0.2395" y="-1" relative="1" as="geometry">
            <mxPoint x="5" as="offset" />
          </mxGeometry>
        </mxCell>
        <mxCell id="UB3iZTF29jPLIW2LqCsD-121" value="" style="endArrow=classic;html=1;rounded=0;exitX=0.944;exitY=0.247;exitDx=0;exitDy=0;exitPerimeter=0;" edge="1" parent="1">
          <mxGeometry width="50" height="50" relative="1" as="geometry">
            <mxPoint x="750" y="-220" as="sourcePoint" />
            <mxPoint x="870" y="-220" as="targetPoint" />
          </mxGeometry>
        </mxCell>
        <mxCell id="UB3iZTF29jPLIW2LqCsD-122" value="ID_EX_MemRead" style="edgeLabel;html=1;align=center;verticalAlign=middle;resizable=0;points=[];" vertex="1" connectable="0" parent="UB3iZTF29jPLIW2LqCsD-121">
          <mxGeometry x="-0.4548" relative="1" as="geometry">
            <mxPoint x="17" as="offset" />
          </mxGeometry>
        </mxCell>
        <mxCell id="UB3iZTF29jPLIW2LqCsD-123" value="" style="endArrow=classic;html=1;rounded=0;exitX=1;exitY=0;exitDx=0;exitDy=0;" edge="1" parent="1">
          <mxGeometry width="50" height="50" relative="1" as="geometry">
            <mxPoint x="750" y="-190" as="sourcePoint" />
            <mxPoint x="870" y="-190" as="targetPoint" />
          </mxGeometry>
        </mxCell>
        <mxCell id="UB3iZTF29jPLIW2LqCsD-124" value="ID_EX_MemtoReg" style="edgeLabel;html=1;align=center;verticalAlign=middle;resizable=0;points=[];" vertex="1" connectable="0" parent="UB3iZTF29jPLIW2LqCsD-123">
          <mxGeometry x="-0.3962" y="-1" relative="1" as="geometry">
            <mxPoint x="17" as="offset" />
          </mxGeometry>
        </mxCell>
        <mxCell id="UB3iZTF29jPLIW2LqCsD-125" value="" style="endArrow=classic;html=1;rounded=0;exitX=1;exitY=0;exitDx=0;exitDy=0;" edge="1" parent="1">
          <mxGeometry width="50" height="50" relative="1" as="geometry">
            <mxPoint x="750" y="-160" as="sourcePoint" />
            <mxPoint x="870" y="-160" as="targetPoint" />
          </mxGeometry>
        </mxCell>
        <mxCell id="UB3iZTF29jPLIW2LqCsD-126" value="ID_EX_MemWrite" style="edgeLabel;html=1;align=center;verticalAlign=middle;resizable=0;points=[];" vertex="1" connectable="0" parent="UB3iZTF29jPLIW2LqCsD-125">
          <mxGeometry x="-0.5158" y="2" relative="1" as="geometry">
            <mxPoint x="25" y="2" as="offset" />
          </mxGeometry>
        </mxCell>
        <mxCell id="UB3iZTF29jPLIW2LqCsD-127" value="" style="endArrow=classic;html=1;rounded=0;exitX=1;exitY=0;exitDx=0;exitDy=0;entryX=1;entryY=0.75;entryDx=0;entryDy=0;" edge="1" parent="1" target="UB3iZTF29jPLIW2LqCsD-182">
          <mxGeometry width="50" height="50" relative="1" as="geometry">
            <mxPoint x="750" y="-130" as="sourcePoint" />
            <mxPoint x="870" y="-130" as="targetPoint" />
            <Array as="points">
              <mxPoint x="1100" y="-130" />
              <mxPoint x="1100" y="240" />
              <mxPoint x="1228" y="240" />
            </Array>
          </mxGeometry>
        </mxCell>
        <mxCell id="UB3iZTF29jPLIW2LqCsD-128" value="ID_EX_ALUSrc" style="edgeLabel;html=1;align=center;verticalAlign=middle;resizable=0;points=[];" vertex="1" connectable="0" parent="UB3iZTF29jPLIW2LqCsD-127">
          <mxGeometry x="-0.3628" y="2" relative="1" as="geometry">
            <mxPoint x="-250" as="offset" />
          </mxGeometry>
        </mxCell>
        <mxCell id="UB3iZTF29jPLIW2LqCsD-129" value="" style="endArrow=classic;html=1;rounded=0;exitX=1;exitY=0;exitDx=0;exitDy=0;" edge="1" parent="1">
          <mxGeometry width="50" height="50" relative="1" as="geometry">
            <mxPoint x="750" y="-277.5" as="sourcePoint" />
            <mxPoint x="870" y="-277.5" as="targetPoint" />
          </mxGeometry>
        </mxCell>
        <mxCell id="UB3iZTF29jPLIW2LqCsD-130" value="ID_EX_RegWrite" style="edgeLabel;html=1;align=center;verticalAlign=middle;resizable=0;points=[];" vertex="1" connectable="0" parent="UB3iZTF29jPLIW2LqCsD-129">
          <mxGeometry x="-0.3628" y="2" relative="1" as="geometry">
            <mxPoint x="10" as="offset" />
          </mxGeometry>
        </mxCell>
        <mxCell id="UB3iZTF29jPLIW2LqCsD-131" value="" style="endArrow=classic;html=1;rounded=0;exitX=1;exitY=0;exitDx=0;exitDy=0;entryX=0.5;entryY=1;entryDx=0;entryDy=0;" edge="1" parent="1" target="UB3iZTF29jPLIW2LqCsD-197">
          <mxGeometry width="50" height="50" relative="1" as="geometry">
            <mxPoint x="750" y="-58.12" as="sourcePoint" />
            <mxPoint x="1340.0000000000482" y="631.88" as="targetPoint" />
            <Array as="points">
              <mxPoint x="810" y="-58.12" />
              <mxPoint x="810" y="671.88" />
              <mxPoint x="1290" y="671.88" />
              <mxPoint x="1370" y="672" />
            </Array>
          </mxGeometry>
        </mxCell>
        <mxCell id="UB3iZTF29jPLIW2LqCsD-132" value="ID_EX_ALUOp" style="edgeLabel;html=1;align=center;verticalAlign=middle;resizable=0;points=[];" vertex="1" connectable="0" parent="UB3iZTF29jPLIW2LqCsD-131">
          <mxGeometry x="-0.3628" y="2" relative="1" as="geometry">
            <mxPoint x="-22" y="-389" as="offset" />
          </mxGeometry>
        </mxCell>
        <mxCell id="UB3iZTF29jPLIW2LqCsD-134" value="" style="rounded=0;whiteSpace=wrap;html=1;" vertex="1" parent="1">
          <mxGeometry x="1450" y="-300" width="30" height="260" as="geometry" />
        </mxCell>
        <mxCell id="UB3iZTF29jPLIW2LqCsD-135" value="" style="endArrow=none;html=1;rounded=0;" edge="1" parent="1">
          <mxGeometry width="50" height="50" relative="1" as="geometry">
            <mxPoint x="1450" y="10" as="sourcePoint" />
            <mxPoint x="1480" y="10" as="targetPoint" />
          </mxGeometry>
        </mxCell>
        <mxCell id="UB3iZTF29jPLIW2LqCsD-190" style="edgeStyle=orthogonalEdgeStyle;rounded=0;orthogonalLoop=1;jettySize=auto;html=1;exitX=0.5;exitY=1;exitDx=0;exitDy=0;entryX=0.25;entryY=0;entryDx=0;entryDy=0;" edge="1" parent="1" source="UB3iZTF29jPLIW2LqCsD-136" target="UB3iZTF29jPLIW2LqCsD-182">
          <mxGeometry relative="1" as="geometry">
            <Array as="points">
              <mxPoint x="1190" y="475" />
              <mxPoint x="1190" y="388" />
            </Array>
          </mxGeometry>
        </mxCell>
        <mxCell id="UB3iZTF29jPLIW2LqCsD-194" value="mux_alu2" style="edgeLabel;html=1;align=center;verticalAlign=middle;resizable=0;points=[];" vertex="1" connectable="0" parent="UB3iZTF29jPLIW2LqCsD-190">
          <mxGeometry x="0.028" y="1" relative="1" as="geometry">
            <mxPoint as="offset" />
          </mxGeometry>
        </mxCell>
        <mxCell id="UB3iZTF29jPLIW2LqCsD-136" value="" style="verticalLabelPosition=middle;verticalAlign=middle;html=1;shape=trapezoid;perimeter=trapezoidPerimeter;whiteSpace=wrap;size=0.23;arcSize=10;flipV=1;labelPosition=center;align=center;rotation=-90;" vertex="1" parent="1">
          <mxGeometry x="1115" y="460" width="90" height="30" as="geometry" />
        </mxCell>
        <mxCell id="UB3iZTF29jPLIW2LqCsD-137" value="" style="verticalLabelPosition=middle;verticalAlign=middle;html=1;shape=trapezoid;perimeter=trapezoidPerimeter;whiteSpace=wrap;size=0.23;arcSize=10;flipV=1;labelPosition=center;align=center;rotation=-90;" vertex="1" parent="1">
          <mxGeometry x="1025" y="246.25" width="90" height="30" as="geometry" />
        </mxCell>
        <mxCell id="UB3iZTF29jPLIW2LqCsD-145" value="" style="group" vertex="1" connectable="0" parent="1">
          <mxGeometry x="1130" y="-240" width="137.5" height="200" as="geometry" />
        </mxCell>
        <mxCell id="UB3iZTF29jPLIW2LqCsD-146" value="MUX_Hazard_to_EX_MEM" style="verticalLabelPosition=middle;verticalAlign=middle;html=1;shape=trapezoid;perimeter=trapezoidPerimeter;whiteSpace=wrap;size=0.23;arcSize=10;flipV=1;labelPosition=center;align=center;rotation=-90;" vertex="1" parent="UB3iZTF29jPLIW2LqCsD-145">
          <mxGeometry x="20" y="82.5" width="200" height="35" as="geometry" />
        </mxCell>
        <mxCell id="UB3iZTF29jPLIW2LqCsD-147" value="" style="endArrow=classic;html=1;rounded=0;" edge="1" parent="UB3iZTF29jPLIW2LqCsD-145">
          <mxGeometry width="50" height="50" relative="1" as="geometry">
            <mxPoint x="40" y="152.5" as="sourcePoint" />
            <mxPoint x="100" y="152.5" as="targetPoint" />
          </mxGeometry>
        </mxCell>
        <mxCell id="UB3iZTF29jPLIW2LqCsD-148" value="zero" style="text;html=1;align=center;verticalAlign=middle;resizable=0;points=[];autosize=1;strokeColor=none;fillColor=none;" vertex="1" parent="UB3iZTF29jPLIW2LqCsD-145">
          <mxGeometry y="136.5" width="50" height="30" as="geometry" />
        </mxCell>
        <mxCell id="UB3iZTF29jPLIW2LqCsD-149" value="" style="endArrow=none;html=1;rounded=0;" edge="1" parent="1">
          <mxGeometry width="50" height="50" relative="1" as="geometry">
            <mxPoint x="870" y="-160" as="sourcePoint" />
            <mxPoint x="870" y="-280" as="targetPoint" />
          </mxGeometry>
        </mxCell>
        <mxCell id="UB3iZTF29jPLIW2LqCsD-150" value="" style="endArrow=classic;html=1;rounded=0;" edge="1" parent="1">
          <mxGeometry width="50" height="50" relative="1" as="geometry">
            <mxPoint x="870" y="-210" as="sourcePoint" />
            <mxPoint x="1230" y="-210" as="targetPoint" />
          </mxGeometry>
        </mxCell>
        <mxCell id="UB3iZTF29jPLIW2LqCsD-151" style="edgeStyle=orthogonalEdgeStyle;rounded=0;orthogonalLoop=1;jettySize=auto;html=1;exitX=0.5;exitY=1;exitDx=0;exitDy=0;entryX=0.049;entryY=0.612;entryDx=0;entryDy=0;entryPerimeter=0;" edge="1" parent="1" source="UB3iZTF29jPLIW2LqCsD-146" target="UB3iZTF29jPLIW2LqCsD-134">
          <mxGeometry relative="1" as="geometry" />
        </mxCell>
        <mxCell id="UB3iZTF29jPLIW2LqCsD-152" value="EX_MEN_cntrlInput" style="edgeLabel;html=1;align=center;verticalAlign=middle;resizable=0;points=[];" vertex="1" connectable="0" parent="UB3iZTF29jPLIW2LqCsD-151">
          <mxGeometry x="-0.1318" y="3" relative="1" as="geometry">
            <mxPoint as="offset" />
          </mxGeometry>
        </mxCell>
        <mxCell id="UB3iZTF29jPLIW2LqCsD-164" style="edgeStyle=orthogonalEdgeStyle;rounded=0;orthogonalLoop=1;jettySize=auto;html=1;exitX=1;exitY=0.5;exitDx=0;exitDy=0;entryX=-0.072;entryY=0.217;entryDx=0;entryDy=0;entryPerimeter=0;" edge="1" parent="1" source="UB3iZTF29jPLIW2LqCsD-153" target="UB3iZTF29jPLIW2LqCsD-7">
          <mxGeometry relative="1" as="geometry">
            <mxPoint x="1380" y="-270" as="targetPoint" />
          </mxGeometry>
        </mxCell>
        <mxCell id="UB3iZTF29jPLIW2LqCsD-165" value="B_Add_Out" style="edgeLabel;html=1;align=center;verticalAlign=middle;resizable=0;points=[];" vertex="1" connectable="0" parent="UB3iZTF29jPLIW2LqCsD-164">
          <mxGeometry x="-0.2919" y="1" relative="1" as="geometry">
            <mxPoint as="offset" />
          </mxGeometry>
        </mxCell>
        <mxCell id="UB3iZTF29jPLIW2LqCsD-166" style="edgeStyle=orthogonalEdgeStyle;rounded=0;orthogonalLoop=1;jettySize=auto;html=1;exitX=0.5;exitY=1;exitDx=0;exitDy=0;" edge="1" parent="1" source="UB3iZTF29jPLIW2LqCsD-153">
          <mxGeometry relative="1" as="geometry">
            <mxPoint x="1241.04347826087" y="180" as="targetPoint" />
          </mxGeometry>
        </mxCell>
        <mxCell id="UB3iZTF29jPLIW2LqCsD-167" value="discard1" style="edgeLabel;html=1;align=center;verticalAlign=middle;resizable=0;points=[];" vertex="1" connectable="0" parent="UB3iZTF29jPLIW2LqCsD-166">
          <mxGeometry x="-0.1245" y="-2" relative="1" as="geometry">
            <mxPoint as="offset" />
          </mxGeometry>
        </mxCell>
        <mxCell id="UB3iZTF29jPLIW2LqCsD-153" value="Branch_adder" style="shape=step;perimeter=stepPerimeter;whiteSpace=wrap;html=1;fixedSize=1;" vertex="1" parent="1">
          <mxGeometry x="1182.5" y="60" width="117.5" height="60" as="geometry" />
        </mxCell>
        <mxCell id="UB3iZTF29jPLIW2LqCsD-154" value="shifter" style="ellipse;whiteSpace=wrap;html=1;" vertex="1" parent="1">
          <mxGeometry x="1030" y="65" width="37" height="80" as="geometry" />
        </mxCell>
        <mxCell id="UB3iZTF29jPLIW2LqCsD-161" style="edgeStyle=orthogonalEdgeStyle;rounded=0;orthogonalLoop=1;jettySize=auto;html=1;exitX=1;exitY=0.5;exitDx=0;exitDy=0;entryX=0.064;entryY=0.748;entryDx=0;entryDy=0;entryPerimeter=0;" edge="1" parent="1" source="UB3iZTF29jPLIW2LqCsD-154" target="UB3iZTF29jPLIW2LqCsD-153">
          <mxGeometry relative="1" as="geometry" />
        </mxCell>
        <mxCell id="UB3iZTF29jPLIW2LqCsD-162" value="" style="endArrow=classic;html=1;rounded=0;entryX=0;entryY=0.25;entryDx=0;entryDy=0;" edge="1" parent="1" target="UB3iZTF29jPLIW2LqCsD-153">
          <mxGeometry width="50" height="50" relative="1" as="geometry">
            <mxPoint x="1110" y="-10" as="sourcePoint" />
            <mxPoint x="1170" y="60" as="targetPoint" />
            <Array as="points">
              <mxPoint x="1110" y="78" />
            </Array>
          </mxGeometry>
        </mxCell>
        <mxCell id="UB3iZTF29jPLIW2LqCsD-170" style="edgeStyle=orthogonalEdgeStyle;rounded=0;orthogonalLoop=1;jettySize=auto;html=1;exitX=1;exitY=0.5;exitDx=0;exitDy=0;entryX=-0.072;entryY=0.583;entryDx=0;entryDy=0;entryPerimeter=0;" edge="1" parent="1" source="UB3iZTF29jPLIW2LqCsD-6" target="UB3iZTF29jPLIW2LqCsD-7">
          <mxGeometry relative="1" as="geometry" />
        </mxCell>
        <mxCell id="UB3iZTF29jPLIW2LqCsD-171" value="alu_out" style="edgeLabel;html=1;align=center;verticalAlign=middle;resizable=0;points=[];" vertex="1" connectable="0" parent="UB3iZTF29jPLIW2LqCsD-170">
          <mxGeometry x="-0.2139" y="-1" relative="1" as="geometry">
            <mxPoint as="offset" />
          </mxGeometry>
        </mxCell>
        <mxCell id="UB3iZTF29jPLIW2LqCsD-172" value="" style="endArrow=classic;html=1;rounded=0;entryX=0.069;entryY=0.936;entryDx=0;entryDy=0;entryPerimeter=0;" edge="1" parent="1" target="UB3iZTF29jPLIW2LqCsD-137">
          <mxGeometry width="50" height="50" relative="1" as="geometry">
            <mxPoint x="1020" y="230" as="sourcePoint" />
            <mxPoint x="1050" y="248.13" as="targetPoint" />
            <Array as="points">
              <mxPoint x="1020" y="300" />
            </Array>
          </mxGeometry>
        </mxCell>
        <mxCell id="UB3iZTF29jPLIW2LqCsD-175" style="edgeStyle=orthogonalEdgeStyle;rounded=0;orthogonalLoop=1;jettySize=auto;html=1;exitX=0.538;exitY=-0.119;exitDx=0;exitDy=0;exitPerimeter=0;" edge="1" parent="1" source="UB3iZTF29jPLIW2LqCsD-174">
          <mxGeometry relative="1" as="geometry">
            <mxPoint x="1060" y="253" as="targetPoint" />
            <mxPoint x="2140" y="262.87" as="sourcePoint" />
            <Array as="points">
              <mxPoint x="2240" y="262" />
              <mxPoint x="2240" y="703" />
              <mxPoint x="940" y="703" />
              <mxPoint x="940" y="253" />
            </Array>
          </mxGeometry>
        </mxCell>
        <mxCell id="UB3iZTF29jPLIW2LqCsD-176" value="write_data" style="edgeLabel;html=1;align=center;verticalAlign=middle;resizable=0;points=[];" vertex="1" connectable="0" parent="UB3iZTF29jPLIW2LqCsD-175">
          <mxGeometry x="-0.6227" y="-2" relative="1" as="geometry">
            <mxPoint x="-48" y="-315" as="offset" />
          </mxGeometry>
        </mxCell>
        <mxCell id="UB3iZTF29jPLIW2LqCsD-174" value="MUX_Mem" style="verticalLabelPosition=middle;verticalAlign=middle;html=1;shape=trapezoid;perimeter=trapezoidPerimeter;whiteSpace=wrap;size=0.23;arcSize=10;flipV=1;labelPosition=center;align=center;rotation=-90;" vertex="1" parent="1">
          <mxGeometry x="2055" y="251.87" width="120" height="30" as="geometry" />
        </mxCell>
        <mxCell id="UB3iZTF29jPLIW2LqCsD-192" style="edgeStyle=orthogonalEdgeStyle;rounded=0;orthogonalLoop=1;jettySize=auto;html=1;exitX=0.5;exitY=1;exitDx=0;exitDy=0;entryX=0;entryY=0.75;entryDx=0;entryDy=0;" edge="1" parent="1" source="UB3iZTF29jPLIW2LqCsD-182" target="UB3iZTF29jPLIW2LqCsD-6">
          <mxGeometry relative="1" as="geometry" />
        </mxCell>
        <mxCell id="UB3iZTF29jPLIW2LqCsD-195" value="alu_input" style="edgeLabel;html=1;align=center;verticalAlign=middle;resizable=0;points=[];" vertex="1" connectable="0" parent="UB3iZTF29jPLIW2LqCsD-192">
          <mxGeometry x="-0.6455" relative="1" as="geometry">
            <mxPoint y="-45" as="offset" />
          </mxGeometry>
        </mxCell>
        <mxCell id="UB3iZTF29jPLIW2LqCsD-182" value="" style="verticalLabelPosition=middle;verticalAlign=middle;html=1;shape=trapezoid;perimeter=trapezoidPerimeter;whiteSpace=wrap;size=0.23;arcSize=10;flipV=1;labelPosition=center;align=center;rotation=-90;" vertex="1" parent="1">
          <mxGeometry x="1177.5" y="350" width="90" height="30" as="geometry" />
        </mxCell>
        <mxCell id="UB3iZTF29jPLIW2LqCsD-186" value="" style="endArrow=classic;html=1;rounded=0;entryX=0;entryY=0.5;entryDx=0;entryDy=0;" edge="1" parent="1" target="UB3iZTF29jPLIW2LqCsD-205">
          <mxGeometry width="50" height="50" relative="1" as="geometry">
            <mxPoint x="1480" y="310" as="sourcePoint" />
            <mxPoint x="1670" y="370" as="targetPoint" />
            <Array as="points">
              <mxPoint x="1620" y="311" />
              <mxPoint x="1620" y="360" />
            </Array>
          </mxGeometry>
        </mxCell>
        <mxCell id="UB3iZTF29jPLIW2LqCsD-187" value="EX_MEM_alu_out" style="edgeLabel;html=1;align=center;verticalAlign=middle;resizable=0;points=[];" vertex="1" connectable="0" parent="UB3iZTF29jPLIW2LqCsD-186">
          <mxGeometry x="-0.0407" y="2" relative="1" as="geometry">
            <mxPoint x="-82" y="-27" as="offset" />
          </mxGeometry>
        </mxCell>
        <mxCell id="UB3iZTF29jPLIW2LqCsD-233" value="EX_MEM_alu_out[7:2]" style="edgeLabel;html=1;align=center;verticalAlign=middle;resizable=0;points=[];" vertex="1" connectable="0" parent="UB3iZTF29jPLIW2LqCsD-186">
          <mxGeometry x="0.5204" y="-2" relative="1" as="geometry">
            <mxPoint x="3" y="-14" as="offset" />
          </mxGeometry>
        </mxCell>
        <mxCell id="UB3iZTF29jPLIW2LqCsD-188" value="" style="endArrow=classic;html=1;rounded=0;entryX=0.322;entryY=0.948;entryDx=0;entryDy=0;entryPerimeter=0;" edge="1" parent="1" target="UB3iZTF29jPLIW2LqCsD-137">
          <mxGeometry width="50" height="50" relative="1" as="geometry">
            <mxPoint x="1500" y="306.25" as="sourcePoint" />
            <mxPoint x="1050" y="276" as="targetPoint" />
            <Array as="points">
              <mxPoint x="1500" y="686" />
              <mxPoint x="1000" y="686.25" />
              <mxPoint x="1000" y="276.25" />
            </Array>
          </mxGeometry>
        </mxCell>
        <mxCell id="UB3iZTF29jPLIW2LqCsD-191" style="edgeStyle=orthogonalEdgeStyle;rounded=0;orthogonalLoop=1;jettySize=auto;html=1;exitX=0.5;exitY=1;exitDx=0;exitDy=0;entryX=0.12;entryY=0.284;entryDx=0;entryDy=0;entryPerimeter=0;" edge="1" parent="1" source="UB3iZTF29jPLIW2LqCsD-137" target="UB3iZTF29jPLIW2LqCsD-6">
          <mxGeometry relative="1" as="geometry" />
        </mxCell>
        <mxCell id="UB3iZTF29jPLIW2LqCsD-193" value="mux_alu1" style="edgeLabel;html=1;align=center;verticalAlign=middle;resizable=0;points=[];" vertex="1" connectable="0" parent="UB3iZTF29jPLIW2LqCsD-191">
          <mxGeometry x="-0.7014" y="1" relative="1" as="geometry">
            <mxPoint as="offset" />
          </mxGeometry>
        </mxCell>
        <mxCell id="UB3iZTF29jPLIW2LqCsD-196" value="" style="endArrow=classic;html=1;rounded=0;entryX=0.797;entryY=1.011;entryDx=0;entryDy=0;entryPerimeter=0;" edge="1" parent="1" target="UB3iZTF29jPLIW2LqCsD-182">
          <mxGeometry width="50" height="50" relative="1" as="geometry">
            <mxPoint x="960" y="340" as="sourcePoint" />
            <mxPoint x="1160" y="320" as="targetPoint" />
          </mxGeometry>
        </mxCell>
        <mxCell id="UB3iZTF29jPLIW2LqCsD-197" value="alu_ctrl&amp;nbsp;" style="ellipse;whiteSpace=wrap;html=1;" vertex="1" parent="1">
          <mxGeometry x="1340" y="580" width="60" height="80" as="geometry" />
        </mxCell>
        <mxCell id="UB3iZTF29jPLIW2LqCsD-198" style="edgeStyle=orthogonalEdgeStyle;rounded=0;orthogonalLoop=1;jettySize=auto;html=1;exitX=0.824;exitY=0.142;exitDx=0;exitDy=0;entryX=0.012;entryY=0.625;entryDx=0;entryDy=0;entryPerimeter=0;exitPerimeter=0;" edge="1" parent="1" source="UB3iZTF29jPLIW2LqCsD-6">
          <mxGeometry relative="1" as="geometry">
            <mxPoint x="1361.458181818182" y="263.23613636363626" as="sourcePoint" />
            <mxPoint x="1450.0000000000002" y="264.21625" as="targetPoint" />
          </mxGeometry>
        </mxCell>
        <mxCell id="UB3iZTF29jPLIW2LqCsD-199" value="zFlag" style="edgeLabel;html=1;align=center;verticalAlign=middle;resizable=0;points=[];" vertex="1" connectable="0" parent="UB3iZTF29jPLIW2LqCsD-198">
          <mxGeometry x="-0.1884" relative="1" as="geometry">
            <mxPoint as="offset" />
          </mxGeometry>
        </mxCell>
        <mxCell id="UB3iZTF29jPLIW2LqCsD-200" value="" style="endArrow=classic;html=1;rounded=0;entryX=0;entryY=0;entryDx=0;entryDy=0;" edge="1" parent="1" target="UB3iZTF29jPLIW2LqCsD-197">
          <mxGeometry width="50" height="50" relative="1" as="geometry">
            <mxPoint x="1290" y="620" as="sourcePoint" />
            <mxPoint x="1320" y="550" as="targetPoint" />
            <Array as="points">
              <mxPoint x="1290" y="592" />
            </Array>
          </mxGeometry>
        </mxCell>
        <mxCell id="UB3iZTF29jPLIW2LqCsD-201" value="ID_EX_Func[2:0]" style="edgeLabel;html=1;align=center;verticalAlign=middle;resizable=0;points=[];" vertex="1" connectable="0" parent="UB3iZTF29jPLIW2LqCsD-200">
          <mxGeometry x="0.039" y="2" relative="1" as="geometry">
            <mxPoint y="-10" as="offset" />
          </mxGeometry>
        </mxCell>
        <mxCell id="UB3iZTF29jPLIW2LqCsD-203" style="edgeStyle=orthogonalEdgeStyle;rounded=0;orthogonalLoop=1;jettySize=auto;html=1;exitX=0.5;exitY=0;exitDx=0;exitDy=0;entryX=0.444;entryY=1.021;entryDx=0;entryDy=0;entryPerimeter=0;" edge="1" parent="1" source="UB3iZTF29jPLIW2LqCsD-197" target="UB3iZTF29jPLIW2LqCsD-6">
          <mxGeometry relative="1" as="geometry" />
        </mxCell>
        <mxCell id="UB3iZTF29jPLIW2LqCsD-204" value="alu_Selection" style="edgeLabel;html=1;align=center;verticalAlign=middle;resizable=0;points=[];" vertex="1" connectable="0" parent="UB3iZTF29jPLIW2LqCsD-203">
          <mxGeometry x="0.0055" y="-1" relative="1" as="geometry">
            <mxPoint x="11" y="-8" as="offset" />
          </mxGeometry>
        </mxCell>
        <mxCell id="UB3iZTF29jPLIW2LqCsD-210" value="" style="group" vertex="1" connectable="0" parent="1">
          <mxGeometry x="1750" y="220" width="160" height="155" as="geometry" />
        </mxCell>
        <mxCell id="UB3iZTF29jPLIW2LqCsD-9" value="Data Mem" style="whiteSpace=wrap;html=1;aspect=fixed;" vertex="1" parent="UB3iZTF29jPLIW2LqCsD-210">
          <mxGeometry x="5" width="155" height="155" as="geometry" />
        </mxCell>
        <mxCell id="UB3iZTF29jPLIW2LqCsD-206" value="data_in" style="text;html=1;align=center;verticalAlign=middle;resizable=0;points=[];autosize=1;strokeColor=none;fillColor=none;" vertex="1" parent="UB3iZTF29jPLIW2LqCsD-210">
          <mxGeometry x="5" y="95" width="60" height="30" as="geometry" />
        </mxCell>
        <mxCell id="UB3iZTF29jPLIW2LqCsD-207" value="MemRead" style="text;html=1;align=center;verticalAlign=middle;resizable=0;points=[];autosize=1;strokeColor=none;fillColor=none;" vertex="1" parent="UB3iZTF29jPLIW2LqCsD-210">
          <mxGeometry x="80" y="10" width="80" height="30" as="geometry" />
        </mxCell>
        <mxCell id="UB3iZTF29jPLIW2LqCsD-208" value="MemWrite" style="text;html=1;align=center;verticalAlign=middle;resizable=0;points=[];autosize=1;strokeColor=none;fillColor=none;" vertex="1" parent="UB3iZTF29jPLIW2LqCsD-210">
          <mxGeometry x="10" y="10" width="80" height="30" as="geometry" />
        </mxCell>
        <mxCell id="UB3iZTF29jPLIW2LqCsD-209" value="clk" style="text;html=1;align=center;verticalAlign=middle;resizable=0;points=[];autosize=1;strokeColor=none;fillColor=none;" vertex="1" parent="UB3iZTF29jPLIW2LqCsD-210">
          <mxGeometry x="90" y="125" width="40" height="30" as="geometry" />
        </mxCell>
        <mxCell id="UB3iZTF29jPLIW2LqCsD-205" value="addr" style="text;strokeColor=none;align=center;fillColor=none;html=1;verticalAlign=middle;whiteSpace=wrap;rounded=0;" vertex="1" parent="UB3iZTF29jPLIW2LqCsD-210">
          <mxGeometry x="5" y="125" width="60" height="30" as="geometry" />
        </mxCell>
        <mxCell id="UB3iZTF29jPLIW2LqCsD-211" style="edgeStyle=orthogonalEdgeStyle;rounded=0;orthogonalLoop=1;jettySize=auto;html=1;exitX=1;exitY=0.5;exitDx=0;exitDy=0;" edge="1" parent="1" target="UB3iZTF29jPLIW2LqCsD-10">
          <mxGeometry relative="1" as="geometry">
            <mxPoint x="1910" y="297.92" as="sourcePoint" />
            <mxPoint x="2010" y="297.05" as="targetPoint" />
            <Array as="points">
              <mxPoint x="1980" y="298" />
              <mxPoint x="1980" y="298" />
            </Array>
          </mxGeometry>
        </mxCell>
        <mxCell id="UB3iZTF29jPLIW2LqCsD-212" value="mem_out" style="edgeLabel;html=1;align=center;verticalAlign=middle;resizable=0;points=[];" vertex="1" connectable="0" parent="UB3iZTF29jPLIW2LqCsD-211">
          <mxGeometry x="-0.0698" y="5" relative="1" as="geometry">
            <mxPoint x="3" y="3" as="offset" />
          </mxGeometry>
        </mxCell>
        <mxCell id="UB3iZTF29jPLIW2LqCsD-214" value="" style="endArrow=classic;html=1;rounded=0;entryX=0.25;entryY=0;entryDx=0;entryDy=0;" edge="1" parent="1" target="UB3iZTF29jPLIW2LqCsD-250">
          <mxGeometry width="50" height="50" relative="1" as="geometry">
            <mxPoint x="1480" y="89.76" as="sourcePoint" />
            <mxPoint x="1680" y="90" as="targetPoint" />
            <Array as="points">
              <mxPoint x="1600" y="90" />
              <mxPoint x="1600" y="840" />
              <mxPoint x="-590" y="840" />
              <mxPoint x="-590" y="291" />
            </Array>
          </mxGeometry>
        </mxCell>
        <mxCell id="UB3iZTF29jPLIW2LqCsD-215" value="EX_MEM_BranchAddOut" style="edgeLabel;html=1;align=center;verticalAlign=middle;resizable=0;points=[];" vertex="1" connectable="0" parent="UB3iZTF29jPLIW2LqCsD-214">
          <mxGeometry x="-0.2676" y="1" relative="1" as="geometry">
            <mxPoint x="437" y="-761" as="offset" />
          </mxGeometry>
        </mxCell>
        <mxCell id="UB3iZTF29jPLIW2LqCsD-216" value="" style="endArrow=classic;html=1;rounded=0;entryX=0.067;entryY=0.5;entryDx=0;entryDy=0;entryPerimeter=0;" edge="1" parent="1" target="UB3iZTF29jPLIW2LqCsD-206">
          <mxGeometry width="50" height="50" relative="1" as="geometry">
            <mxPoint x="1470" y="200.8" as="sourcePoint" />
            <mxPoint x="1670" y="201.04000000000002" as="targetPoint" />
            <Array as="points">
              <mxPoint x="1700" y="201" />
              <mxPoint x="1700" y="330" />
            </Array>
          </mxGeometry>
        </mxCell>
        <mxCell id="UB3iZTF29jPLIW2LqCsD-217" value="EX_MEM_RegR2" style="edgeLabel;html=1;align=center;verticalAlign=middle;resizable=0;points=[];" vertex="1" connectable="0" parent="UB3iZTF29jPLIW2LqCsD-216">
          <mxGeometry x="-0.2676" y="1" relative="1" as="geometry">
            <mxPoint x="16" as="offset" />
          </mxGeometry>
        </mxCell>
        <mxCell id="UB3iZTF29jPLIW2LqCsD-218" value="" style="endArrow=classic;html=1;rounded=0;exitX=1.079;exitY=0.079;exitDx=0;exitDy=0;entryX=0;entryY=0.25;entryDx=0;entryDy=0;entryPerimeter=0;exitPerimeter=0;" edge="1" parent="1" source="UB3iZTF29jPLIW2LqCsD-134" target="UB3iZTF29jPLIW2LqCsD-238">
          <mxGeometry width="50" height="50" relative="1" as="geometry">
            <mxPoint x="1480" y="-268.7" as="sourcePoint" />
            <mxPoint x="1680" y="-299.9999999999998" as="targetPoint" />
            <Array as="points">
              <mxPoint x="1580" y="-280" />
            </Array>
          </mxGeometry>
        </mxCell>
        <mxCell id="UB3iZTF29jPLIW2LqCsD-219" value="EX_MEM_Branch" style="edgeLabel;html=1;align=center;verticalAlign=middle;resizable=0;points=[];" vertex="1" connectable="0" parent="UB3iZTF29jPLIW2LqCsD-218">
          <mxGeometry x="-0.2395" y="-1" relative="1" as="geometry">
            <mxPoint x="22" y="1" as="offset" />
          </mxGeometry>
        </mxCell>
        <mxCell id="UB3iZTF29jPLIW2LqCsD-220" value="" style="endArrow=classic;html=1;rounded=0;exitX=0.944;exitY=0.247;exitDx=0;exitDy=0;exitPerimeter=0;entryX=0.75;entryY=0;entryDx=0;entryDy=0;" edge="1" parent="1" target="UB3iZTF29jPLIW2LqCsD-9">
          <mxGeometry width="50" height="50" relative="1" as="geometry">
            <mxPoint x="1480" y="-217.95" as="sourcePoint" />
            <mxPoint x="1600" y="-217.95" as="targetPoint" />
            <Array as="points">
              <mxPoint x="1870" y="-220" />
            </Array>
          </mxGeometry>
        </mxCell>
        <mxCell id="UB3iZTF29jPLIW2LqCsD-221" value="EX_MEM_MemRead" style="edgeLabel;html=1;align=center;verticalAlign=middle;resizable=0;points=[];" vertex="1" connectable="0" parent="UB3iZTF29jPLIW2LqCsD-220">
          <mxGeometry x="-0.4548" relative="1" as="geometry">
            <mxPoint x="-145" y="-1" as="offset" />
          </mxGeometry>
        </mxCell>
        <mxCell id="UB3iZTF29jPLIW2LqCsD-222" value="" style="endArrow=classic;html=1;rounded=0;exitX=1;exitY=0;exitDx=0;exitDy=0;entryX=-0.174;entryY=0.426;entryDx=0;entryDy=0;entryPerimeter=0;" edge="1" parent="1" target="UB3iZTF29jPLIW2LqCsD-253">
          <mxGeometry width="50" height="50" relative="1" as="geometry">
            <mxPoint x="1480" y="-187.95" as="sourcePoint" />
            <mxPoint x="1600" y="-187.95" as="targetPoint" />
          </mxGeometry>
        </mxCell>
        <mxCell id="UB3iZTF29jPLIW2LqCsD-223" value="EX_MEM_MemtoReg" style="edgeLabel;html=1;align=center;verticalAlign=middle;resizable=0;points=[];" vertex="1" connectable="0" parent="UB3iZTF29jPLIW2LqCsD-222">
          <mxGeometry x="-0.3962" y="-1" relative="1" as="geometry">
            <mxPoint x="-83" y="-3" as="offset" />
          </mxGeometry>
        </mxCell>
        <mxCell id="UB3iZTF29jPLIW2LqCsD-224" value="" style="endArrow=classic;html=1;rounded=0;exitX=1;exitY=0;exitDx=0;exitDy=0;entryX=0.25;entryY=0;entryDx=0;entryDy=0;" edge="1" parent="1" target="UB3iZTF29jPLIW2LqCsD-9">
          <mxGeometry width="50" height="50" relative="1" as="geometry">
            <mxPoint x="1480" y="-157.95" as="sourcePoint" />
            <mxPoint x="1760" y="190" as="targetPoint" />
            <Array as="points">
              <mxPoint x="1794" y="-158" />
            </Array>
          </mxGeometry>
        </mxCell>
        <mxCell id="UB3iZTF29jPLIW2LqCsD-225" value="EX_MEM_MemWrite" style="edgeLabel;html=1;align=center;verticalAlign=middle;resizable=0;points=[];" vertex="1" connectable="0" parent="UB3iZTF29jPLIW2LqCsD-224">
          <mxGeometry x="-0.5158" y="2" relative="1" as="geometry">
            <mxPoint x="-107" y="2" as="offset" />
          </mxGeometry>
        </mxCell>
        <mxCell id="UB3iZTF29jPLIW2LqCsD-226" value="" style="endArrow=classic;html=1;rounded=0;exitX=1;exitY=0;exitDx=0;exitDy=0;entryX=-0.057;entryY=0.657;entryDx=0;entryDy=0;entryPerimeter=0;" edge="1" parent="1" target="UB3iZTF29jPLIW2LqCsD-253">
          <mxGeometry width="50" height="50" relative="1" as="geometry">
            <mxPoint x="1480" y="-130" as="sourcePoint" />
            <mxPoint x="1600" y="-130" as="targetPoint" />
          </mxGeometry>
        </mxCell>
        <mxCell id="UB3iZTF29jPLIW2LqCsD-227" value="EX_MEM_RegWrite" style="edgeLabel;html=1;align=center;verticalAlign=middle;resizable=0;points=[];" vertex="1" connectable="0" parent="UB3iZTF29jPLIW2LqCsD-226">
          <mxGeometry x="-0.3628" y="2" relative="1" as="geometry">
            <mxPoint x="-92" as="offset" />
          </mxGeometry>
        </mxCell>
        <mxCell id="UB3iZTF29jPLIW2LqCsD-228" value="" style="endArrow=classic;html=1;rounded=0;exitX=1.13;exitY=0.143;exitDx=0;exitDy=0;exitPerimeter=0;entryX=0;entryY=0.142;entryDx=0;entryDy=0;entryPerimeter=0;" edge="1" parent="1" source="UB3iZTF29jPLIW2LqCsD-7" target="UB3iZTF29jPLIW2LqCsD-10">
          <mxGeometry width="50" height="50" relative="1" as="geometry">
            <mxPoint x="1550" y="40" as="sourcePoint" />
            <mxPoint x="1690" y="45" as="targetPoint" />
          </mxGeometry>
        </mxCell>
        <mxCell id="UB3iZTF29jPLIW2LqCsD-229" value="EX_MEM_Rd" style="edgeLabel;html=1;align=center;verticalAlign=middle;resizable=0;points=[];" vertex="1" connectable="0" parent="UB3iZTF29jPLIW2LqCsD-228">
          <mxGeometry x="-0.3596" y="4" relative="1" as="geometry">
            <mxPoint as="offset" />
          </mxGeometry>
        </mxCell>
        <mxCell id="UB3iZTF29jPLIW2LqCsD-230" value="" style="endArrow=classic;html=1;rounded=0;exitX=1;exitY=0.5;exitDx=0;exitDy=0;entryX=0;entryY=0.75;entryDx=0;entryDy=0;entryPerimeter=0;" edge="1" parent="1" source="UB3iZTF29jPLIW2LqCsD-7" target="UB3iZTF29jPLIW2LqCsD-238">
          <mxGeometry width="50" height="50" relative="1" as="geometry">
            <mxPoint x="1540" y="270" as="sourcePoint" />
            <mxPoint x="1670" y="260" as="targetPoint" />
            <Array as="points">
              <mxPoint x="1630" y="260" />
              <mxPoint x="1630" y="-48" />
              <mxPoint x="1630" y="-258" />
            </Array>
          </mxGeometry>
        </mxCell>
        <mxCell id="UB3iZTF29jPLIW2LqCsD-231" value="EX_MEM_Zero" style="edgeLabel;html=1;align=center;verticalAlign=middle;resizable=0;points=[];" vertex="1" connectable="0" parent="UB3iZTF29jPLIW2LqCsD-230">
          <mxGeometry x="-0.342" relative="1" as="geometry">
            <mxPoint x="-70" y="68" as="offset" />
          </mxGeometry>
        </mxCell>
        <mxCell id="UB3iZTF29jPLIW2LqCsD-235" value="" style="endArrow=classic;html=1;rounded=0;entryX=0.838;entryY=0.993;entryDx=0;entryDy=0;entryPerimeter=0;" edge="1" parent="1" target="UB3iZTF29jPLIW2LqCsD-136">
          <mxGeometry width="50" height="50" relative="1" as="geometry">
            <mxPoint x="1130" y="200" as="sourcePoint" />
            <mxPoint x="1130" y="450" as="targetPoint" />
            <Array as="points">
              <mxPoint x="1130" y="445" />
            </Array>
          </mxGeometry>
        </mxCell>
        <mxCell id="UB3iZTF29jPLIW2LqCsD-236" value="" style="endArrow=classic;html=1;rounded=0;entryX=0.5;entryY=0;entryDx=0;entryDy=0;" edge="1" parent="1" target="UB3iZTF29jPLIW2LqCsD-136">
          <mxGeometry width="50" height="50" relative="1" as="geometry">
            <mxPoint x="1120" y="700" as="sourcePoint" />
            <mxPoint x="1115" y="460" as="targetPoint" />
            <Array as="points">
              <mxPoint x="1120" y="475" />
            </Array>
          </mxGeometry>
        </mxCell>
        <mxCell id="UB3iZTF29jPLIW2LqCsD-237" value="" style="endArrow=classic;html=1;rounded=0;entryX=0.25;entryY=0;entryDx=0;entryDy=0;" edge="1" parent="1" target="UB3iZTF29jPLIW2LqCsD-136">
          <mxGeometry width="50" height="50" relative="1" as="geometry">
            <mxPoint x="1000" y="500" as="sourcePoint" />
            <mxPoint x="1060" y="480" as="targetPoint" />
          </mxGeometry>
        </mxCell>
        <mxCell id="UB3iZTF29jPLIW2LqCsD-239" style="edgeStyle=orthogonalEdgeStyle;rounded=0;orthogonalLoop=1;jettySize=auto;html=1;exitX=1;exitY=0.5;exitDx=0;exitDy=0;exitPerimeter=0;entryX=1;entryY=0.75;entryDx=0;entryDy=0;" edge="1" parent="1" source="UB3iZTF29jPLIW2LqCsD-238" target="UB3iZTF29jPLIW2LqCsD-250">
          <mxGeometry relative="1" as="geometry">
            <mxPoint x="1900" y="-268.2857142857142" as="targetPoint" />
            <Array as="points">
              <mxPoint x="1830" y="-268" />
              <mxPoint x="1830" y="-450" />
              <mxPoint x="-444" y="-450" />
            </Array>
          </mxGeometry>
        </mxCell>
        <mxCell id="UB3iZTF29jPLIW2LqCsD-240" value="&amp;nbsp;B_MUX_Sel" style="edgeLabel;html=1;align=center;verticalAlign=middle;resizable=0;points=[];" vertex="1" connectable="0" parent="UB3iZTF29jPLIW2LqCsD-239">
          <mxGeometry x="0.1469" relative="1" as="geometry">
            <mxPoint x="1492" y="170" as="offset" />
          </mxGeometry>
        </mxCell>
        <mxCell id="UB3iZTF29jPLIW2LqCsD-238" value="" style="shape=or;whiteSpace=wrap;html=1;" vertex="1" parent="1">
          <mxGeometry x="1680" y="-290" width="30" height="43" as="geometry" />
        </mxCell>
        <mxCell id="UB3iZTF29jPLIW2LqCsD-246" style="edgeStyle=orthogonalEdgeStyle;rounded=0;orthogonalLoop=1;jettySize=auto;html=1;exitX=1;exitY=0.5;exitDx=0;exitDy=0;entryX=0.75;entryY=0;entryDx=0;entryDy=0;" edge="1" parent="1" source="UB3iZTF29jPLIW2LqCsD-241" target="UB3iZTF29jPLIW2LqCsD-250">
          <mxGeometry relative="1" as="geometry">
            <mxPoint x="20" y="-239.75" as="targetPoint" />
            <Array as="points">
              <mxPoint x="-20" y="-240" />
              <mxPoint x="-20" y="-350" />
              <mxPoint x="-487" y="-350" />
              <mxPoint x="-487" y="221" />
            </Array>
          </mxGeometry>
        </mxCell>
        <mxCell id="UB3iZTF29jPLIW2LqCsD-247" value="pc_inc" style="edgeLabel;html=1;align=center;verticalAlign=middle;resizable=0;points=[];" vertex="1" connectable="0" parent="UB3iZTF29jPLIW2LqCsD-246">
          <mxGeometry x="-0.2315" y="1" relative="1" as="geometry">
            <mxPoint x="250" y="94" as="offset" />
          </mxGeometry>
        </mxCell>
        <mxCell id="UB3iZTF29jPLIW2LqCsD-248" style="edgeStyle=orthogonalEdgeStyle;rounded=0;orthogonalLoop=1;jettySize=auto;html=1;exitX=0.5;exitY=1;exitDx=0;exitDy=0;" edge="1" parent="1" source="UB3iZTF29jPLIW2LqCsD-241">
          <mxGeometry relative="1" as="geometry">
            <mxPoint x="-145.5" y="-169.99999999999977" as="targetPoint" />
          </mxGeometry>
        </mxCell>
        <mxCell id="UB3iZTF29jPLIW2LqCsD-249" value="discard2" style="edgeLabel;html=1;align=center;verticalAlign=middle;resizable=0;points=[];" vertex="1" connectable="0" parent="UB3iZTF29jPLIW2LqCsD-248">
          <mxGeometry x="0.0983" y="-1" relative="1" as="geometry">
            <mxPoint as="offset" />
          </mxGeometry>
        </mxCell>
        <mxCell id="UB3iZTF29jPLIW2LqCsD-241" value="PC_adder" style="shape=step;perimeter=stepPerimeter;whiteSpace=wrap;html=1;fixedSize=1;" vertex="1" parent="1">
          <mxGeometry x="-204.75" y="-270" width="117.5" height="60" as="geometry" />
        </mxCell>
        <mxCell id="UB3iZTF29jPLIW2LqCsD-242" value="" style="endArrow=classic;html=1;rounded=0;entryX=0;entryY=0.75;entryDx=0;entryDy=0;" edge="1" parent="1" target="UB3iZTF29jPLIW2LqCsD-241">
          <mxGeometry width="50" height="50" relative="1" as="geometry">
            <mxPoint x="-260" y="271.42857142857144" as="sourcePoint" />
            <mxPoint x="-260" y="-260" as="targetPoint" />
            <Array as="points">
              <mxPoint x="-260" y="-228" />
            </Array>
          </mxGeometry>
        </mxCell>
        <mxCell id="UB3iZTF29jPLIW2LqCsD-245" value="" style="group" vertex="1" connectable="0" parent="1">
          <mxGeometry x="-280" y="-270" width="30" height="30" as="geometry" />
        </mxCell>
        <mxCell id="UB3iZTF29jPLIW2LqCsD-243" value="" style="endArrow=classic;html=1;rounded=0;entryX=0;entryY=0.25;entryDx=0;entryDy=0;" edge="1" parent="UB3iZTF29jPLIW2LqCsD-245" target="UB3iZTF29jPLIW2LqCsD-241">
          <mxGeometry width="50" height="50" relative="1" as="geometry">
            <mxPoint x="20" y="18" as="sourcePoint" />
            <mxPoint x="67.30128205128199" y="-0.003076923076662297" as="targetPoint" />
          </mxGeometry>
        </mxCell>
        <mxCell id="UB3iZTF29jPLIW2LqCsD-244" value="4" style="text;html=1;align=center;verticalAlign=middle;resizable=0;points=[];autosize=1;strokeColor=none;fillColor=none;" vertex="1" parent="UB3iZTF29jPLIW2LqCsD-245">
          <mxGeometry width="30" height="30" as="geometry" />
        </mxCell>
        <mxCell id="UB3iZTF29jPLIW2LqCsD-251" style="edgeStyle=orthogonalEdgeStyle;rounded=0;orthogonalLoop=1;jettySize=auto;html=1;exitX=0.5;exitY=1;exitDx=0;exitDy=0;entryX=0;entryY=0.5;entryDx=0;entryDy=0;" edge="1" parent="1" source="UB3iZTF29jPLIW2LqCsD-250" target="UB3iZTF29jPLIW2LqCsD-1">
          <mxGeometry relative="1" as="geometry" />
        </mxCell>
        <mxCell id="UB3iZTF29jPLIW2LqCsD-252" value="PC_in" style="edgeLabel;html=1;align=center;verticalAlign=middle;resizable=0;points=[];" vertex="1" connectable="0" parent="UB3iZTF29jPLIW2LqCsD-251">
          <mxGeometry x="-0.0753" y="1" relative="1" as="geometry">
            <mxPoint x="1" as="offset" />
          </mxGeometry>
        </mxCell>
        <mxCell id="UB3iZTF29jPLIW2LqCsD-250" value="MUX_PC" style="verticalLabelPosition=middle;verticalAlign=middle;html=1;shape=trapezoid;perimeter=trapezoidPerimeter;whiteSpace=wrap;size=0.23;arcSize=10;flipV=1;labelPosition=center;align=center;rotation=-90;" vertex="1" parent="1">
          <mxGeometry x="-520" y="238.5" width="140" height="35" as="geometry" />
        </mxCell>
        <mxCell id="UB3iZTF29jPLIW2LqCsD-253" value="" style="rounded=0;whiteSpace=wrap;html=1;" vertex="1" parent="1">
          <mxGeometry x="1990" y="-300" width="30" height="260" as="geometry" />
        </mxCell>
        <mxCell id="UB3iZTF29jPLIW2LqCsD-255" value="" style="endArrow=classic;html=1;rounded=0;entryX=0;entryY=0.75;entryDx=0;entryDy=0;" edge="1" parent="1" target="UB3iZTF29jPLIW2LqCsD-10">
          <mxGeometry width="50" height="50" relative="1" as="geometry">
            <mxPoint x="1500" y="410" as="sourcePoint" />
            <mxPoint x="1810" y="460" as="targetPoint" />
          </mxGeometry>
        </mxCell>
        <mxCell id="UB3iZTF29jPLIW2LqCsD-256" value="" style="endArrow=classic;html=1;rounded=0;" edge="1" parent="1">
          <mxGeometry width="50" height="50" relative="1" as="geometry">
            <mxPoint x="2020" y="44.41" as="sourcePoint" />
            <mxPoint x="2270" y="44.41" as="targetPoint" />
          </mxGeometry>
        </mxCell>
        <mxCell id="UB3iZTF29jPLIW2LqCsD-257" value="MEM_WB_Rd" style="edgeLabel;html=1;align=center;verticalAlign=middle;resizable=0;points=[];" vertex="1" connectable="0" parent="UB3iZTF29jPLIW2LqCsD-256">
          <mxGeometry x="-0.3111" relative="1" as="geometry">
            <mxPoint as="offset" />
          </mxGeometry>
        </mxCell>
        <mxCell id="UB3iZTF29jPLIW2LqCsD-258" value="" style="endArrow=classic;html=1;rounded=0;entryX=0.25;entryY=0;entryDx=0;entryDy=0;" edge="1" parent="1" target="UB3iZTF29jPLIW2LqCsD-174">
          <mxGeometry width="50" height="50" relative="1" as="geometry">
            <mxPoint x="2020" y="410" as="sourcePoint" />
            <mxPoint x="2200" y="410" as="targetPoint" />
            <Array as="points">
              <mxPoint x="2080" y="410" />
              <mxPoint x="2080" y="297" />
            </Array>
          </mxGeometry>
        </mxCell>
        <mxCell id="UB3iZTF29jPLIW2LqCsD-259" value="MEM_WB_alu_out" style="edgeLabel;html=1;align=center;verticalAlign=middle;resizable=0;points=[];" vertex="1" connectable="0" parent="UB3iZTF29jPLIW2LqCsD-258">
          <mxGeometry x="-0.3111" relative="1" as="geometry">
            <mxPoint y="16" as="offset" />
          </mxGeometry>
        </mxCell>
        <mxCell id="UB3iZTF29jPLIW2LqCsD-261" value="" style="endArrow=classic;html=1;rounded=0;entryX=0.81;entryY=0.909;entryDx=0;entryDy=0;entryPerimeter=0;" edge="1" parent="1" target="UB3iZTF29jPLIW2LqCsD-174">
          <mxGeometry width="50" height="50" relative="1" as="geometry">
            <mxPoint x="2020" y="297" as="sourcePoint" />
            <mxPoint x="2097.87" y="296.4299999999999" as="targetPoint" />
            <Array as="points">
              <mxPoint x="2050" y="297" />
              <mxPoint x="2050" y="230" />
            </Array>
          </mxGeometry>
        </mxCell>
        <mxCell id="UB3iZTF29jPLIW2LqCsD-262" value="MEM_WB_alu_out" style="edgeLabel;html=1;align=center;verticalAlign=middle;resizable=0;points=[];" vertex="1" connectable="0" parent="UB3iZTF29jPLIW2LqCsD-261">
          <mxGeometry x="-0.4178" y="3" relative="1" as="geometry">
            <mxPoint x="8" y="-68" as="offset" />
          </mxGeometry>
        </mxCell>
        <mxCell id="UB3iZTF29jPLIW2LqCsD-263" value="" style="endArrow=classic;html=1;rounded=0;entryX=0.75;entryY=0;entryDx=0;entryDy=0;" edge="1" parent="1" target="UB3iZTF29jPLIW2LqCsD-4">
          <mxGeometry width="50" height="50" relative="1" as="geometry">
            <mxPoint x="2020" y="-130" as="sourcePoint" />
            <mxPoint x="2270" y="-130" as="targetPoint" />
            <Array as="points">
              <mxPoint x="2300" y="-130" />
              <mxPoint x="2300" y="-520" />
              <mxPoint x="340" y="-520" />
              <mxPoint x="340" y="60" />
              <mxPoint x="603" y="60" />
            </Array>
          </mxGeometry>
        </mxCell>
        <mxCell id="UB3iZTF29jPLIW2LqCsD-264" value="MEM_WB_RegWrite" style="edgeLabel;html=1;align=center;verticalAlign=middle;resizable=0;points=[];" vertex="1" connectable="0" parent="UB3iZTF29jPLIW2LqCsD-263">
          <mxGeometry x="-0.3111" relative="1" as="geometry">
            <mxPoint x="466" y="380" as="offset" />
          </mxGeometry>
        </mxCell>
        <mxCell id="UB3iZTF29jPLIW2LqCsD-265" value="" style="endArrow=classic;html=1;rounded=0;entryX=1;entryY=0.5;entryDx=0;entryDy=0;" edge="1" parent="1" target="UB3iZTF29jPLIW2LqCsD-174">
          <mxGeometry width="50" height="50" relative="1" as="geometry">
            <mxPoint x="2020" y="-190" as="sourcePoint" />
            <mxPoint x="2270" y="-190" as="targetPoint" />
            <Array as="points">
              <mxPoint x="2115" y="-190" />
            </Array>
          </mxGeometry>
        </mxCell>
        <mxCell id="UB3iZTF29jPLIW2LqCsD-266" value="MEM_WB_MemtoReg" style="edgeLabel;html=1;align=center;verticalAlign=middle;resizable=0;points=[];" vertex="1" connectable="0" parent="UB3iZTF29jPLIW2LqCsD-265">
          <mxGeometry x="-0.3111" relative="1" as="geometry">
            <mxPoint x="-35" y="-92" as="offset" />
          </mxGeometry>
        </mxCell>
        <mxCell id="UB3iZTF29jPLIW2LqCsD-267" value="RegWrite" style="text;html=1;align=center;verticalAlign=middle;resizable=0;points=[];autosize=1;strokeColor=none;fillColor=none;" vertex="1" parent="1">
          <mxGeometry x="555" y="120" width="70" height="30" as="geometry" />
        </mxCell>
        <mxCell id="UB3iZTF29jPLIW2LqCsD-268" value="" style="endArrow=classic;html=1;rounded=0;" edge="1" parent="1">
          <mxGeometry width="50" height="50" relative="1" as="geometry">
            <mxPoint x="2300" y="-130" as="sourcePoint" />
            <mxPoint x="1120" y="610" as="targetPoint" />
            <Array as="points">
              <mxPoint x="2300" y="980" />
              <mxPoint x="1160" y="980" />
              <mxPoint x="1160" y="610" />
            </Array>
          </mxGeometry>
        </mxCell>
        <mxCell id="UB3iZTF29jPLIW2LqCsD-269" value="" style="endArrow=classic;html=1;rounded=0;entryX=0.5;entryY=1;entryDx=0;entryDy=0;entryPerimeter=0;" edge="1" parent="1" target="UB3iZTF29jPLIW2LqCsD-102">
          <mxGeometry width="50" height="50" relative="1" as="geometry">
            <mxPoint x="1690" y="-130" as="sourcePoint" />
            <mxPoint x="1120" y="600" as="targetPoint" />
            <Array as="points">
              <mxPoint x="1680" y="790" />
              <mxPoint x="1070" y="790" />
            </Array>
          </mxGeometry>
        </mxCell>
        <mxCell id="UB3iZTF29jPLIW2LqCsD-270" value="" style="endArrow=classic;html=1;rounded=0;entryX=1;entryY=0.75;entryDx=0;entryDy=0;" edge="1" parent="1" target="UB3iZTF29jPLIW2LqCsD-15">
          <mxGeometry width="50" height="50" relative="1" as="geometry">
            <mxPoint x="130" y="-450" as="sourcePoint" />
            <mxPoint y="-90" as="targetPoint" />
          </mxGeometry>
        </mxCell>
        <mxCell id="UB3iZTF29jPLIW2LqCsD-280" style="edgeStyle=orthogonalEdgeStyle;rounded=0;orthogonalLoop=1;jettySize=auto;html=1;exitX=0;exitY=0.5;exitDx=0;exitDy=0;entryX=0.5;entryY=1;entryDx=0;entryDy=0;" edge="1" parent="1" source="UB3iZTF29jPLIW2LqCsD-271" target="UB3iZTF29jPLIW2LqCsD-3">
          <mxGeometry relative="1" as="geometry">
            <mxPoint x="200" y="530" as="targetPoint" />
            <Array as="points">
              <mxPoint x="-660" y="-640" />
              <mxPoint x="-660" y="920" />
              <mxPoint x="265" y="920" />
            </Array>
          </mxGeometry>
        </mxCell>
        <mxCell id="UB3iZTF29jPLIW2LqCsD-281" value="stall" style="edgeLabel;html=1;align=center;verticalAlign=middle;resizable=0;points=[];" vertex="1" connectable="0" parent="UB3iZTF29jPLIW2LqCsD-280">
          <mxGeometry x="0.2242" y="-2" relative="1" as="geometry">
            <mxPoint as="offset" />
          </mxGeometry>
        </mxCell>
        <mxCell id="UB3iZTF29jPLIW2LqCsD-285" value="stall" style="edgeLabel;html=1;align=center;verticalAlign=middle;resizable=0;points=[];" vertex="1" connectable="0" parent="UB3iZTF29jPLIW2LqCsD-280">
          <mxGeometry x="-0.9679" y="-5" relative="1" as="geometry">
            <mxPoint as="offset" />
          </mxGeometry>
        </mxCell>
        <mxCell id="UB3iZTF29jPLIW2LqCsD-271" value="HazardUnit" style="ellipse;whiteSpace=wrap;html=1;" vertex="1" parent="1">
          <mxGeometry x="110" y="-720" width="120" height="160" as="geometry" />
        </mxCell>
        <mxCell id="UB3iZTF29jPLIW2LqCsD-272" value="" style="endArrow=classic;html=1;rounded=0;entryX=1;entryY=0.5;entryDx=0;entryDy=0;" edge="1" parent="1" target="UB3iZTF29jPLIW2LqCsD-271">
          <mxGeometry width="50" height="50" relative="1" as="geometry">
            <mxPoint x="380" y="150" as="sourcePoint" />
            <mxPoint x="390" y="90" as="targetPoint" />
            <Array as="points">
              <mxPoint x="380" y="-640" />
            </Array>
          </mxGeometry>
        </mxCell>
        <mxCell id="UB3iZTF29jPLIW2LqCsD-273" value="" style="endArrow=classic;html=1;rounded=0;entryX=1;entryY=1;entryDx=0;entryDy=0;" edge="1" parent="1" target="UB3iZTF29jPLIW2LqCsD-271">
          <mxGeometry width="50" height="50" relative="1" as="geometry">
            <mxPoint x="370" y="200" as="sourcePoint" />
            <mxPoint x="270" y="-320" as="targetPoint" />
            <Array as="points">
              <mxPoint x="370" y="-583" />
            </Array>
          </mxGeometry>
        </mxCell>
        <mxCell id="UB3iZTF29jPLIW2LqCsD-274" value="" style="endArrow=classic;html=1;rounded=0;entryX=1;entryY=0;entryDx=0;entryDy=0;" edge="1" parent="1" target="UB3iZTF29jPLIW2LqCsD-271">
          <mxGeometry width="50" height="50" relative="1" as="geometry">
            <mxPoint x="960" y="40" as="sourcePoint" />
            <mxPoint x="830" y="-650" as="targetPoint" />
            <Array as="points">
              <mxPoint x="960" y="-697" />
            </Array>
          </mxGeometry>
        </mxCell>
        <mxCell id="UB3iZTF29jPLIW2LqCsD-275" value="ID_EX_Rd" style="edgeLabel;html=1;align=center;verticalAlign=middle;resizable=0;points=[];" vertex="1" connectable="0" parent="UB3iZTF29jPLIW2LqCsD-274">
          <mxGeometry x="0.0788" y="-1" relative="1" as="geometry">
            <mxPoint x="1" as="offset" />
          </mxGeometry>
        </mxCell>
        <mxCell id="UB3iZTF29jPLIW2LqCsD-277" value="" style="endArrow=classic;html=1;rounded=0;entryX=0.5;entryY=0;entryDx=0;entryDy=0;" edge="1" parent="1" target="UB3iZTF29jPLIW2LqCsD-271">
          <mxGeometry width="50" height="50" relative="1" as="geometry">
            <mxPoint x="850" y="-220" as="sourcePoint" />
            <mxPoint x="660" y="-620" as="targetPoint" />
            <Array as="points">
              <mxPoint x="850" y="-780" />
              <mxPoint x="170" y="-780" />
            </Array>
          </mxGeometry>
        </mxCell>
        <mxCell id="UB3iZTF29jPLIW2LqCsD-279" value="ID_EX_MemRead" style="edgeLabel;html=1;align=center;verticalAlign=middle;resizable=0;points=[];" vertex="1" connectable="0" parent="UB3iZTF29jPLIW2LqCsD-277">
          <mxGeometry x="0.4362" relative="1" as="geometry">
            <mxPoint as="offset" />
          </mxGeometry>
        </mxCell>
        <mxCell id="UB3iZTF29jPLIW2LqCsD-282" value="load" style="text;html=1;align=center;verticalAlign=middle;resizable=0;points=[];autosize=1;strokeColor=none;fillColor=none;" vertex="1" parent="1">
          <mxGeometry x="-335" y="276.25" width="50" height="30" as="geometry" />
        </mxCell>
        <mxCell id="UB3iZTF29jPLIW2LqCsD-283" value="" style="endArrow=classic;html=1;rounded=0;entryX=0.518;entryY=1.154;entryDx=0;entryDy=0;entryPerimeter=0;" edge="1" parent="1" target="UB3iZTF29jPLIW2LqCsD-282">
          <mxGeometry width="50" height="50" relative="1" as="geometry">
            <mxPoint x="-309" y="920" as="sourcePoint" />
            <mxPoint x="-310" y="390" as="targetPoint" />
          </mxGeometry>
        </mxCell>
        <mxCell id="UB3iZTF29jPLIW2LqCsD-284" value="~stall" style="text;html=1;align=center;verticalAlign=middle;resizable=0;points=[];autosize=1;strokeColor=none;fillColor=none;" vertex="1" parent="1">
          <mxGeometry x="-360" y="330" width="50" height="30" as="geometry" />
        </mxCell>
        <mxCell id="UB3iZTF29jPLIW2LqCsD-286" value="" style="endArrow=classic;html=1;rounded=0;entryX=0.81;entryY=0.316;entryDx=0;entryDy=0;entryPerimeter=0;" edge="1" parent="1" target="UB3iZTF29jPLIW2LqCsD-287">
          <mxGeometry width="50" height="50" relative="1" as="geometry">
            <mxPoint x="-70" y="-640" as="sourcePoint" />
            <mxPoint x="590" y="-970" as="targetPoint" />
            <Array as="points">
              <mxPoint x="-70" y="-960" />
              <mxPoint x="640" y="-960" />
            </Array>
          </mxGeometry>
        </mxCell>
        <mxCell id="UB3iZTF29jPLIW2LqCsD-290" style="edgeStyle=orthogonalEdgeStyle;rounded=0;orthogonalLoop=1;jettySize=auto;html=1;exitX=0;exitY=0.5;exitDx=0;exitDy=0;entryX=1;entryY=0.75;entryDx=0;entryDy=0;" edge="1" parent="1" source="UB3iZTF29jPLIW2LqCsD-287" target="UB3iZTF29jPLIW2LqCsD-44">
          <mxGeometry relative="1" as="geometry" />
        </mxCell>
        <mxCell id="UB3iZTF29jPLIW2LqCsD-291" value="IF_ID_flush_sel" style="edgeLabel;html=1;align=center;verticalAlign=middle;resizable=0;points=[];" vertex="1" connectable="0" parent="UB3iZTF29jPLIW2LqCsD-290">
          <mxGeometry x="-0.1569" y="2" relative="1" as="geometry">
            <mxPoint as="offset" />
          </mxGeometry>
        </mxCell>
        <mxCell id="UB3iZTF29jPLIW2LqCsD-287" value="" style="shape=dataStorage;whiteSpace=wrap;html=1;fixedSize=1;rotation=-90;" vertex="1" parent="1">
          <mxGeometry x="625" y="-382.5" width="60" height="50" as="geometry" />
        </mxCell>
        <mxCell id="UB3iZTF29jPLIW2LqCsD-288" value="" style="endArrow=classic;html=1;rounded=0;entryX=0.718;entryY=0.777;entryDx=0;entryDy=0;entryPerimeter=0;" edge="1" parent="1" target="UB3iZTF29jPLIW2LqCsD-287">
          <mxGeometry width="50" height="50" relative="1" as="geometry">
            <mxPoint x="669" y="-450" as="sourcePoint" />
            <mxPoint x="750" y="-420" as="targetPoint" />
          </mxGeometry>
        </mxCell>
      </root>
    </mxGraphModel>
  </diagram>
</mxfile>
